<svg xmlns:mydata="http://www.w3.org/2000/svg" mydata:contrastcolor="11111f" mydata:template="Contrast" mydata:presentation="2.5" mydata:layouttype="undefined" mydata:specialfontid="undefined" mydata:id1="129" mydata:id2="128" mydata:companyname="ARM CLUB" mydata:companytagline="CONTROL" version="1.1" xmlns="http://www.w3.org/2000/svg" xmlns:xlink="http://www.w3.org/1999/xlink" viewBox="0 0 550 470" style="background-color: rgb(17, 17, 31); background-image: radial-gradient(circle closest-side, rgba(255, 255, 255, 0.07) 0%, rgba(255, 255, 255, 0) 100%);" width="640"  height="547" ><defs style="animation-play-state: paused;"><g fill-rule="none" font-family="none" font-weight="none" font-size="none" text-anchor="none" style="mix-blend-mode: normal; animation-play-state: paused;" id="interstellar-group"><g data-paper-data="{&quot;isGlobalGroup&quot;:true,&quot;bounds&quot;:{&quot;x&quot;:65.00000000000001,&quot;y&quot;:199.44874290667872,&quot;width&quot;:420,&quot;height&quot;:71.10251418664257}}" style="animation-play-state: paused;"><g data-paper-data="{&quot;isSecondaryText&quot;:true}" fill-rule="nonzero" style="animation-play-state: paused;"><path d="M205.44002,266.92572c-1.35999,0 -2.52257,-0.48258 -3.48772,-1.44773c-0.96516,-0.96516 -1.44773,-2.12773 -1.44773,-3.48772c0,-1.35999 0.48258,-2.52257 1.44773,-3.48772c0.96516,-0.96516 2.12773,-1.44773 3.48772,-1.44773c0.97064,0 1.86451,0.26597 2.6816,0.7979v-1.25032c-0.84451,-0.42226 -1.73838,-0.63338 -2.6816,-0.63338c-1.6616,0 -3.07918,0.58951 -4.25272,1.76854c-1.17903,1.17354 -1.76854,2.59111 -1.76854,4.25272c0,1.6616 0.58951,3.07918 1.76854,4.25272c1.17354,1.17903 2.59111,1.76854 4.25272,1.76854c0.94322,0 1.83709,-0.21113 2.6816,-0.63338v-1.25032c-0.81709,0.53193 -1.71096,0.7979 -2.6816,0.7979z" data-paper-data="{&quot;glyphName&quot;:&quot;C&quot;,&quot;glyphIndex&quot;:0,&quot;firstGlyphOfWord&quot;:true,&quot;word&quot;:1}" style="animation-play-state: paused;"></path><path d="M228.40489,257.06303c-1.35999,0 -2.52257,0.48258 -3.48772,1.44773c-0.96516,0.96516 -1.44773,2.12773 -1.44773,3.48772c0,1.35999 0.48258,2.52257 1.44773,3.48772c0.96516,0.96516 2.12773,1.44773 3.48772,1.44773c1.35999,0 2.52257,-0.48258 3.48772,-1.44773c0.96516,-0.96516 1.44773,-2.12773 1.44773,-3.48772c0,-1.35999 -0.48258,-2.52257 -1.44773,-3.48772c-0.96516,-0.96516 -2.12773,-1.44773 -3.48772,-1.44773zM228.40489,268.01974c-1.6616,0 -3.07918,-0.58951 -4.25272,-1.76854c-1.17903,-1.17354 -1.76854,-2.59111 -1.76854,-4.25272c0,-1.6616 0.58951,-3.08192 1.76854,-4.26094c1.17354,-1.17354 2.59111,-1.76031 4.25272,-1.76031c1.6616,0 3.08192,0.58677 4.26094,1.76031c1.17354,1.17903 1.76031,2.59934 1.76031,4.26094c0,1.6616 -0.58677,3.07918 -1.76031,4.25272c-1.17903,1.17903 -2.59934,1.76854 -4.26094,1.76854z" data-paper-data="{&quot;glyphName&quot;:&quot;O&quot;,&quot;glyphIndex&quot;:1,&quot;word&quot;:1}" style="animation-play-state: paused;"></path><path d="M256.5081,256.08416v9.84624l-5.88142,-9.84624h-1.17628v11.81219h1.0858v-9.84624l5.88965,9.84624h1.16806v-11.81219z" data-paper-data="{&quot;glyphName&quot;:&quot;N&quot;,&quot;glyphIndex&quot;:2,&quot;word&quot;:1}" style="animation-play-state: paused;"></path><path d="M270.76284,256.08416v1.0858h3.10111v10.72639h1.0858v-10.72639h3.09289v-1.0858z" data-paper-data="{&quot;glyphName&quot;:&quot;T&quot;,&quot;glyphIndex&quot;:3,&quot;word&quot;:1}" style="animation-play-state: paused;"></path><path d="M292.40956,261.47204v-4.30207h3.15869c0.59225,0 1.09951,0.21113 1.52177,0.63338c0.41677,0.42226 0.62516,0.92951 0.62516,1.52177c0,0.59225 -0.20839,1.09951 -0.62516,1.52177c-0.42226,0.41677 -0.92951,0.62516 -1.52177,0.62516zM296.40728,262.4509c0.69645,-0.18645 1.26677,-0.56484 1.71096,-1.13516c0.45516,-0.58677 0.68274,-1.25032 0.68274,-1.99063c0,-0.89387 -0.31532,-1.65612 -0.94596,-2.28676c-0.63064,-0.63613 -1.3929,-0.95419 -2.28676,-0.95419h-4.24449v11.80397h1.0858v-5.33029h2.82966l2.77208,5.33852h1.21741z" data-paper-data="{&quot;glyphName&quot;:&quot;R&quot;,&quot;glyphIndex&quot;:4,&quot;word&quot;:1}" style="animation-play-state: paused;"></path><path d="M318.86773,257.06303c-1.35999,0 -2.52257,0.48258 -3.48772,1.44773c-0.96516,0.96516 -1.44773,2.12773 -1.44773,3.48772c0,1.35999 0.48258,2.52257 1.44773,3.48772c0.96516,0.96516 2.12773,1.44773 3.48772,1.44773c1.35999,0 2.52257,-0.48258 3.48772,-1.44773c0.96516,-0.96516 1.44773,-2.12773 1.44773,-3.48772c0,-1.35999 -0.48258,-2.52257 -1.44773,-3.48772c-0.96516,-0.96516 -2.12773,-1.44773 -3.48772,-1.44773zM318.86773,268.01974c-1.6616,0 -3.07918,-0.58951 -4.25272,-1.76854c-1.17903,-1.17354 -1.76854,-2.59111 -1.76854,-4.25272c0,-1.6616 0.58951,-3.08192 1.76854,-4.26094c1.17354,-1.17354 2.59111,-1.76031 4.25272,-1.76031c1.6616,0 3.08192,0.58677 4.26094,1.76031c1.17354,1.17903 1.76031,2.59934 1.76031,4.26094c0,1.6616 -0.58677,3.07918 -1.76031,4.25272c-1.17903,1.17903 -2.59934,1.76854 -4.26094,1.76854z" data-paper-data="{&quot;glyphName&quot;:&quot;O&quot;,&quot;glyphIndex&quot;:5,&quot;word&quot;:1}" style="animation-play-state: paused;"></path><path d="M339.34335,256.08416v11.81219h6.57238v-1.0858h-5.48658v-10.72639z" data-paper-data="{&quot;glyphName&quot;:&quot;L&quot;,&quot;glyphIndex&quot;:6,&quot;lastGlyphOfWord&quot;:true,&quot;word&quot;:1}" style="animation-play-state: paused;"></path></g><g data-paper-data="{&quot;isPrimaryText&quot;:true}" fill-rule="nonzero" style="animation-play-state: paused;"><path d="M228.1579,202.4566l-28.73913,45.44276h8.16128l6.7005,-10.60649h15.43339v10.60649h6.9228v-45.44276zM229.71394,212.9043v17.49753h-11.08283z" data-paper-data="{&quot;glyphName&quot;:&quot;A&quot;,&quot;glyphIndex&quot;:0,&quot;firstGlyphOfWord&quot;:true,&quot;word&quot;:1}" style="animation-play-state: paused;"></path><path d="M250.92691,221.85948v-12.51184h9.8761c1.71482,0 3.18618,0.61395 4.41408,1.84184c1.20673,1.2279 1.81009,2.70984 1.81009,4.44583c0,1.71482 -0.60336,3.17559 -1.81009,4.38232c-1.2279,1.2279 -2.69926,1.84184 -4.41408,1.84184zM265.94747,227.70257c2.37111,-1.01619 4.28705,-2.60399 5.74783,-4.76339c1.50311,-2.20175 2.25467,-4.63637 2.25467,-7.30387c0,-3.64135 -1.29141,-6.74285 -3.87423,-9.30449c-2.56165,-2.58282 -5.65256,-3.87423 -9.27274,-3.87423h-16.76714v45.44276h6.89104v-19.14884h7.78021l9.93961,19.14884h7.78021z" data-paper-data="{&quot;glyphName&quot;:&quot;R&quot;,&quot;glyphIndex&quot;:1,&quot;word&quot;:1}" style="animation-play-state: paused;"></path><path d="M320.15488,202.4566l-16.19553,37.09095l-16.005,-37.09095h-7.2086v45.44276h6.89104v-28.67562l12.41658,28.67562h7.78021l12.63887,-28.86616v28.86616h6.89104v-45.44276z" data-paper-data="{&quot;glyphName&quot;:&quot;M&quot;,&quot;glyphIndex&quot;:2,&quot;lastGlyphOfWord&quot;:true,&quot;word&quot;:1}" style="animation-play-state: paused;"></path><path d="M372.36165,241.42114c-4.48817,0 -8.32006,-1.5878 -11.49565,-4.76339c-3.17559,-3.17559 -4.76339,-7.00748 -4.76339,-11.49565c0,-4.48817 1.5878,-8.32006 4.76339,-11.49565c3.17559,-3.19677 7.00748,-4.79515 11.49565,-4.79515c2.75218,0 5.32441,0.65629 7.7167,1.96887v-7.55792c-2.49813,-0.868 -5.07037,-1.30199 -7.7167,-1.30199c-6.39353,0 -11.85555,2.26526 -16.38607,6.79577c-4.53052,4.53052 -6.79577,9.99254 -6.79577,16.38607c0,6.39353 2.26526,11.85555 6.79577,16.38607c4.53052,4.53052 9.99254,6.79577 16.38607,6.79577c2.64633,0 5.21856,-0.44458 7.7167,-1.33375v-7.52616c-2.39228,1.29141 -4.96451,1.93711 -7.7167,1.93711z" data-paper-data="{&quot;glyphName&quot;:&quot;C&quot;,&quot;glyphIndex&quot;:3,&quot;firstGlyphOfWord&quot;:true,&quot;word&quot;:2}" style="animation-play-state: paused;"></path><path d="M385.79442,202.4566v45.44276h23.18184v-6.89104h-16.2908v-38.55172z" data-paper-data="{&quot;glyphName&quot;:&quot;L&quot;,&quot;glyphIndex&quot;:4,&quot;word&quot;:2}" style="animation-play-state: paused;"></path><path d="M431.01489,248.31218c-4.44583,0 -8.25655,-1.57721 -11.43214,-4.73164c-3.15442,-3.15442 -4.73164,-6.96514 -4.73164,-11.43214v-29.72357h6.9228v29.72357c0,2.56165 0.89975,4.74222 2.69926,6.54173c1.82067,1.82067 4.00125,2.73101 6.54173,2.73101c2.56165,0 4.74222,-0.91034 6.54173,-2.73101c1.82067,-1.7995 2.73101,-3.98008 2.73101,-6.54173v-29.72357h6.9228v29.72357c0,4.467 -1.5878,8.27772 -4.76339,11.43214c-3.15442,3.15442 -6.96514,4.73164 -11.43214,4.73164z" data-paper-data="{&quot;glyphName&quot;:&quot;U&quot;,&quot;glyphIndex&quot;:5,&quot;word&quot;:2}" style="animation-play-state: paused;"></path><path d="M461.97694,221.60543h7.36738c1.69365,0 3.13325,-0.60336 4.31881,-1.81009c1.20673,-1.18556 1.81009,-2.62516 1.81009,-4.31881c0,-1.69365 -0.60336,-3.13325 -1.81009,-4.31881c-1.18556,-1.20673 -2.62516,-1.81009 -4.31881,-1.81009h-7.36738zM461.97694,241.00832h9.8761c1.71482,0 3.18618,-0.61395 4.41408,-1.84184c1.20673,-1.2279 1.81009,-2.70984 1.81009,-4.44583c0,-1.71482 -0.60336,-3.17559 -1.81009,-4.38232c-1.2279,-1.2279 -2.69926,-1.84184 -4.41408,-1.84184h-9.8761zM455.0859,247.89936v-45.44276h14.25842c3.59901,0 6.66875,1.27024 9.20922,3.81071c2.54048,2.56165 3.81071,5.63139 3.81071,9.20922c0,3.19677 -1.02678,6.00187 -3.08033,8.41533c1.75716,1.20673 3.13325,2.75218 4.12827,4.63637c1.05853,1.92653 1.5878,3.99066 1.5878,6.19241c0,3.64135 -1.29141,6.74285 -3.87423,9.30449c-2.56165,2.58282 -5.65256,3.87423 -9.27274,3.87423z" data-paper-data="{&quot;glyphName&quot;:&quot;B&quot;,&quot;glyphIndex&quot;:6,&quot;lastGlyphOfWord&quot;:true,&quot;word&quot;:2}" style="animation-play-state: paused;"></path></g><g data-paper-data="{&quot;isIcon&quot;:&quot;true&quot;,&quot;iconType&quot;:&quot;icon&quot;,&quot;rawIconId&quot;:&quot;1608371&quot;,&quot;selectedEffects&quot;:{&quot;container&quot;:&quot;&quot;,&quot;transformation&quot;:&quot;&quot;,&quot;pattern&quot;:&quot;&quot;},&quot;isDetailed&quot;:true,&quot;iconStyle&quot;:&quot;standalone&quot;,&quot;bounds&quot;:{&quot;x&quot;:65.00000000000001,&quot;y&quot;:199.44874290667872,&quot;width&quot;:100.98901984844541,&quot;height&quot;:71.10251418664257},&quot;fillRule&quot;:&quot;evenodd&quot;,&quot;suitableAsStandaloneIcon&quot;:true}" fill-rule="evenodd" style="animation-play-state: paused;"><path d="M165.30885,247.38099c-1.17371,-7.46752 -6.78641,-36.64751 -13.39553,-40.52321c-0.21881,-0.12792 -0.63735,-0.29623 -1.20064,-0.48923c-0.93246,-1.47331 -1.92439,-2.97691 -2.32497,-3.21143c-1.70558,-0.99978 -14.71286,-4.50071 -17.36773,-3.54469l-3.1946,1.52605l-0.02357,0.20422h-24.61307l-0.02357,-0.20422l-3.1946,-1.52605c-2.65487,-0.95602 -15.66216,2.54602 -17.36773,3.54469c-0.40059,0.23452 -1.39364,1.737 -2.32497,3.21143c-0.40956,0.14037 -0.7426,0.26762 -0.97801,0.37579c0.01313,-0.00628 0.02637,-0.01257 0.03995,-0.01897c-0.03378,0.01537 -0.06519,0.03019 -0.0947,0.04466c-0.06474,0.03097 -0.12096,0.06026 -0.16786,0.08775c-6.61136,3.87571 -12.22406,33.05569 -13.39777,40.52321c-0.94368,6.01104 -3.05882,20.6117 11.66414,23.16446c0.7647,0.13667 2.88524,-2.15363 5.71268,-5.2074c5.34205,-5.76957 13.20713,-14.26425 19.21795,-14.26425h26.43984c6.0116,0 13.8787,8.4967 19.22076,14.26627c2.82632,3.05254 4.94584,5.34172 5.70987,5.20538c14.72408,-2.55276 12.60894,-17.15341 11.66414,-23.16446zM144.45366,214.73935c-1.6865,0 -3.05658,-1.37232 -3.05658,-3.0577c0,-1.6865 1.37007,-3.05882 3.05658,-3.05882c1.68538,0 3.05658,1.37232 3.05658,3.05882c0,1.6865 -1.37119,3.0577 -3.05658,3.0577zM87.32237,226.96341c-4.485,0 -8.13517,-3.64904 -8.13517,-8.13517c0,-4.48612 3.64904,-8.13517 8.13517,-8.13517c4.48725,0 8.13629,3.64904 8.13629,8.13517c0.00112,4.48612 -3.64904,8.13517 -8.13629,8.13517zM87.32237,211.61432c-3.97669,0 -7.21393,3.23611 -7.21393,7.21505c0,3.97669 3.23611,7.21393 7.21393,7.21393c3.97894,0 7.21617,-3.23611 7.21617,-7.21393c0,-3.97894 -3.23723,-7.21505 -7.21617,-7.21505zM87.32461,225.00087c-3.4134,0 -6.17038,-2.76034 -6.17038,-6.16926c0,-3.41228 2.7581,-6.17375 6.17038,-6.17375c3.40555,0 6.16814,2.76147 6.16814,6.17375c0,3.40779 -2.76259,6.16926 -6.16814,6.16926zM87.32461,214.1985c-2.56286,0 -4.6275,2.07475 -4.6275,4.63199c0,2.55724 2.06465,4.62863 4.6275,4.62863c2.55276,0 4.62526,-2.07138 4.62526,-4.62863c0,-2.55724 -2.0725,-4.63199 -4.62526,-4.63199zM87.32237,222.53788c-2.04333,0 -3.70178,-1.65957 -3.70178,-3.70627c0,-2.04557 1.65957,-3.7029 3.70178,-3.7029c2.04781,0 3.70066,1.65845 3.70066,3.7029c0,2.04669 -1.65284,3.70627 -3.70066,3.70627zM137.3856,221.80852c-1.68538,0 -3.05658,-1.37232 -3.05658,-3.0577c0,-1.6865 1.37119,-3.0577 3.05658,-3.0577c1.6865,0 3.0577,1.37119 3.0577,3.0577c-0.00112,1.68538 -1.37119,3.0577 -3.0577,3.0577zM151.5666,221.80852c-1.68538,0 -3.05658,-1.37232 -3.05658,-3.0577c0,-1.6865 1.37119,-3.0577 3.05658,-3.0577c1.6865,0 3.0577,1.37119 3.0577,3.0577c0,1.68538 -1.37119,3.0577 -3.0577,3.0577zM108.86316,221.18576c-1.17034,0 -2.123,-0.95153 -2.123,-2.12412c0,-1.17258 0.95265,-2.12412 2.123,-2.12412c1.17146,0 2.12412,0.95153 2.12412,2.12412c0,1.17258 -0.95153,2.12412 -2.12412,2.12412zM123.81503,216.93865c1.17258,0 2.12412,0.95265 2.12412,2.12412c0,1.17146 -0.95153,2.12412 -2.12412,2.12412c-1.17258,0 -2.12412,-0.95265 -2.12412,-2.12412c0,-1.17146 0.95153,-2.12412 2.12412,-2.12412zM110.05818,218.60383h-0.65754v-0.50719c0,-0.0763 -0.06284,-0.13802 -0.13802,-0.13802h-1.59225c-0.0763,0 -0.13802,0.06171 -0.13802,0.13802v1.28704c0,0.0763 0.06171,0.13802 0.13802,0.13802h0.65754v0.50719c0,0.0763 0.06171,0.13802 0.13802,0.13802h1.59225c0.0763,0 0.13802,-0.06171 0.13802,-0.13802v-1.28704c0,-0.07742 -0.06059,-0.13802 -0.13802,-0.13802zM122.88033,218.36146c0,-0.07518 0.06284,-0.13802 0.13802,-0.13802h1.59225c0.0763,0 0.13802,0.06284 0.13802,0.13802c0,0.0763 -0.06171,0.13802 -0.13802,0.13802h-1.59225c-0.07518,0 -0.13802,-0.06171 -0.13802,-0.13802zM108.32792,218.74185v0.50382h-0.51953v-1.01101h1.31622v0.36917h-0.65867c-0.07742,0 -0.13802,0.06059 -0.13802,0.13802zM109.92017,219.89087h-1.31622v-1.01101h1.31622zM122.88033,219.06276c0,-0.0763 0.06284,-0.13802 0.13802,-0.13802h1.59225c0.0763,0 0.13802,0.06171 0.13802,0.13802c0,0.0763 -0.06171,0.13802 -0.13802,0.13802h-1.59225c-0.07518,0 -0.13802,-0.06171 -0.13802,-0.13802zM122.88033,219.76519c0,-0.0763 0.06284,-0.13802 0.13802,-0.13802h1.59225c0.0763,0 0.13802,0.06171 0.13802,0.13802c0,0.0763 -0.06171,0.13802 -0.13802,0.13802h-1.59225c-0.07518,0 -0.13802,-0.06171 -0.13802,-0.13802zM144.45366,228.87658c-1.6865,0 -3.05658,-1.37232 -3.05658,-3.0577c0,-1.68538 1.37007,-3.0577 3.05658,-3.0577c1.68538,0 3.05658,1.37232 3.05658,3.0577c0,1.68538 -1.37119,3.0577 -3.05658,3.0577zM129.77446,244.68684c-4.485,0 -8.13404,-3.64904 -8.13404,-8.13517c0,-4.48612 3.64904,-8.13517 8.13404,-8.13517c4.48612,0 8.13629,3.64904 8.13629,8.13517c0,4.48612 -3.65016,8.13517 -8.13629,8.13517zM109.92915,239.10556h-4.67015v4.40645c0,0 -0.92124,0.45445 -2.48431,0.45445c-1.56307,0 -2.48543,-0.45445 -2.48543,-0.45445v-4.40645h-4.40533c0,0 -0.45557,-0.92124 -0.45557,-2.48543c0,-1.56195 0.45557,-2.48431 0.45557,-2.48431h4.40533v-4.6679c0,0 0.92236,-0.45669 2.48543,-0.45669c1.56307,0 2.48431,0.45669 2.48431,0.45669v4.6679h4.67015c0,0 0.45557,0.92236 0.45557,2.48431c0,1.56419 -0.45557,2.48543 -0.45557,2.48543zM129.77446,229.33663c-3.97669,0 -7.21393,3.23723 -7.21393,7.21505c0,3.97782 3.23723,7.2128 7.21393,7.2128c3.97782,0 7.21617,-3.23499 7.21617,-7.2128c0,-3.97782 -3.23835,-7.21505 -7.21617,-7.21505zM129.7767,242.72318c-3.4134,0 -6.17038,-2.76147 -6.17038,-6.16926c0,-3.41228 2.7581,-6.17375 6.17038,-6.17375c3.40555,0 6.16814,2.76147 6.16814,6.17375c0,3.40779 -2.76259,6.16926 -6.16814,6.16926zM129.7767,231.92081c-2.56286,0 -4.6275,2.07475 -4.6275,4.63199c0,2.55724 2.06465,4.62863 4.6275,4.62863c2.55276,0 4.62526,-2.07138 4.62526,-4.62863c0,-2.55724 -2.0725,-4.63199 -4.62526,-4.63199zM129.77446,240.26019c-2.04333,0 -3.70178,-1.65957 -3.70178,-3.70627c0,-2.04557 1.65957,-3.7029 3.70178,-3.7029c2.04781,0 3.70066,1.65845 3.70066,3.7029c0,2.04669 -1.65284,3.70627 -3.70066,3.70627z" data-paper-data="{&quot;isPathIcon&quot;:true}" style="animation-play-state: paused;"></path></g></g></g><g fill-rule="none" font-family="none" font-weight="none" font-size="none" text-anchor="none" style="mix-blend-mode: normal; animation-play-state: paused;" id="interstellar-group"><g data-paper-data="{&quot;isGlobalGroup&quot;:true,&quot;bounds&quot;:{&quot;x&quot;:65.00000000000001,&quot;y&quot;:199.44874290667872,&quot;width&quot;:420,&quot;height&quot;:71.10251418664257}}" style="animation-play-state: paused;"><g data-paper-data="{&quot;isSecondaryText&quot;:true}" fill-rule="nonzero" style="animation-play-state: paused;"><path d="M205.44002,266.92572c-1.35999,0 -2.52257,-0.48258 -3.48772,-1.44773c-0.96516,-0.96516 -1.44773,-2.12773 -1.44773,-3.48772c0,-1.35999 0.48258,-2.52257 1.44773,-3.48772c0.96516,-0.96516 2.12773,-1.44773 3.48772,-1.44773c0.97064,0 1.86451,0.26597 2.6816,0.7979v-1.25032c-0.84451,-0.42226 -1.73838,-0.63338 -2.6816,-0.63338c-1.6616,0 -3.07918,0.58951 -4.25272,1.76854c-1.17903,1.17354 -1.76854,2.59111 -1.76854,4.25272c0,1.6616 0.58951,3.07918 1.76854,4.25272c1.17354,1.17903 2.59111,1.76854 4.25272,1.76854c0.94322,0 1.83709,-0.21113 2.6816,-0.63338v-1.25032c-0.81709,0.53193 -1.71096,0.7979 -2.6816,0.7979z" data-paper-data="{&quot;glyphName&quot;:&quot;C&quot;,&quot;glyphIndex&quot;:0,&quot;firstGlyphOfWord&quot;:true,&quot;word&quot;:1}" style="animation-play-state: paused;"></path><path d="M228.40489,257.06303c-1.35999,0 -2.52257,0.48258 -3.48772,1.44773c-0.96516,0.96516 -1.44773,2.12773 -1.44773,3.48772c0,1.35999 0.48258,2.52257 1.44773,3.48772c0.96516,0.96516 2.12773,1.44773 3.48772,1.44773c1.35999,0 2.52257,-0.48258 3.48772,-1.44773c0.96516,-0.96516 1.44773,-2.12773 1.44773,-3.48772c0,-1.35999 -0.48258,-2.52257 -1.44773,-3.48772c-0.96516,-0.96516 -2.12773,-1.44773 -3.48772,-1.44773zM228.40489,268.01974c-1.6616,0 -3.07918,-0.58951 -4.25272,-1.76854c-1.17903,-1.17354 -1.76854,-2.59111 -1.76854,-4.25272c0,-1.6616 0.58951,-3.08192 1.76854,-4.26094c1.17354,-1.17354 2.59111,-1.76031 4.25272,-1.76031c1.6616,0 3.08192,0.58677 4.26094,1.76031c1.17354,1.17903 1.76031,2.59934 1.76031,4.26094c0,1.6616 -0.58677,3.07918 -1.76031,4.25272c-1.17903,1.17903 -2.59934,1.76854 -4.26094,1.76854z" data-paper-data="{&quot;glyphName&quot;:&quot;O&quot;,&quot;glyphIndex&quot;:1,&quot;word&quot;:1}" style="animation-play-state: paused;"></path><path d="M256.5081,256.08416v9.84624l-5.88142,-9.84624h-1.17628v11.81219h1.0858v-9.84624l5.88965,9.84624h1.16806v-11.81219z" data-paper-data="{&quot;glyphName&quot;:&quot;N&quot;,&quot;glyphIndex&quot;:2,&quot;word&quot;:1}" style="animation-play-state: paused;"></path><path d="M270.76284,256.08416v1.0858h3.10111v10.72639h1.0858v-10.72639h3.09289v-1.0858z" data-paper-data="{&quot;glyphName&quot;:&quot;T&quot;,&quot;glyphIndex&quot;:3,&quot;word&quot;:1}" style="animation-play-state: paused;"></path><path d="M292.40956,261.47204v-4.30207h3.15869c0.59225,0 1.09951,0.21113 1.52177,0.63338c0.41677,0.42226 0.62516,0.92951 0.62516,1.52177c0,0.59225 -0.20839,1.09951 -0.62516,1.52177c-0.42226,0.41677 -0.92951,0.62516 -1.52177,0.62516zM296.40728,262.4509c0.69645,-0.18645 1.26677,-0.56484 1.71096,-1.13516c0.45516,-0.58677 0.68274,-1.25032 0.68274,-1.99063c0,-0.89387 -0.31532,-1.65612 -0.94596,-2.28676c-0.63064,-0.63613 -1.3929,-0.95419 -2.28676,-0.95419h-4.24449v11.80397h1.0858v-5.33029h2.82966l2.77208,5.33852h1.21741z" data-paper-data="{&quot;glyphName&quot;:&quot;R&quot;,&quot;glyphIndex&quot;:4,&quot;word&quot;:1}" style="animation-play-state: paused;"></path><path d="M318.86773,257.06303c-1.35999,0 -2.52257,0.48258 -3.48772,1.44773c-0.96516,0.96516 -1.44773,2.12773 -1.44773,3.48772c0,1.35999 0.48258,2.52257 1.44773,3.48772c0.96516,0.96516 2.12773,1.44773 3.48772,1.44773c1.35999,0 2.52257,-0.48258 3.48772,-1.44773c0.96516,-0.96516 1.44773,-2.12773 1.44773,-3.48772c0,-1.35999 -0.48258,-2.52257 -1.44773,-3.48772c-0.96516,-0.96516 -2.12773,-1.44773 -3.48772,-1.44773zM318.86773,268.01974c-1.6616,0 -3.07918,-0.58951 -4.25272,-1.76854c-1.17903,-1.17354 -1.76854,-2.59111 -1.76854,-4.25272c0,-1.6616 0.58951,-3.08192 1.76854,-4.26094c1.17354,-1.17354 2.59111,-1.76031 4.25272,-1.76031c1.6616,0 3.08192,0.58677 4.26094,1.76031c1.17354,1.17903 1.76031,2.59934 1.76031,4.26094c0,1.6616 -0.58677,3.07918 -1.76031,4.25272c-1.17903,1.17903 -2.59934,1.76854 -4.26094,1.76854z" data-paper-data="{&quot;glyphName&quot;:&quot;O&quot;,&quot;glyphIndex&quot;:5,&quot;word&quot;:1}" style="animation-play-state: paused;"></path><path d="M339.34335,256.08416v11.81219h6.57238v-1.0858h-5.48658v-10.72639z" data-paper-data="{&quot;glyphName&quot;:&quot;L&quot;,&quot;glyphIndex&quot;:6,&quot;lastGlyphOfWord&quot;:true,&quot;word&quot;:1}" style="animation-play-state: paused;"></path></g><g data-paper-data="{&quot;isPrimaryText&quot;:true}" fill-rule="nonzero" style="animation-play-state: paused;"><path d="M228.1579,202.4566l-28.73913,45.44276h8.16128l6.7005,-10.60649h15.43339v10.60649h6.9228v-45.44276zM229.71394,212.9043v17.49753h-11.08283z" data-paper-data="{&quot;glyphName&quot;:&quot;A&quot;,&quot;glyphIndex&quot;:0,&quot;firstGlyphOfWord&quot;:true,&quot;word&quot;:1}" style="animation-play-state: paused;"></path><path d="M250.92691,221.85948v-12.51184h9.8761c1.71482,0 3.18618,0.61395 4.41408,1.84184c1.20673,1.2279 1.81009,2.70984 1.81009,4.44583c0,1.71482 -0.60336,3.17559 -1.81009,4.38232c-1.2279,1.2279 -2.69926,1.84184 -4.41408,1.84184zM265.94747,227.70257c2.37111,-1.01619 4.28705,-2.60399 5.74783,-4.76339c1.50311,-2.20175 2.25467,-4.63637 2.25467,-7.30387c0,-3.64135 -1.29141,-6.74285 -3.87423,-9.30449c-2.56165,-2.58282 -5.65256,-3.87423 -9.27274,-3.87423h-16.76714v45.44276h6.89104v-19.14884h7.78021l9.93961,19.14884h7.78021z" data-paper-data="{&quot;glyphName&quot;:&quot;R&quot;,&quot;glyphIndex&quot;:1,&quot;word&quot;:1}" style="animation-play-state: paused;"></path><path d="M320.15488,202.4566l-16.19553,37.09095l-16.005,-37.09095h-7.2086v45.44276h6.89104v-28.67562l12.41658,28.67562h7.78021l12.63887,-28.86616v28.86616h6.89104v-45.44276z" data-paper-data="{&quot;glyphName&quot;:&quot;M&quot;,&quot;glyphIndex&quot;:2,&quot;lastGlyphOfWord&quot;:true,&quot;word&quot;:1}" style="animation-play-state: paused;"></path><path d="M372.36165,241.42114c-4.48817,0 -8.32006,-1.5878 -11.49565,-4.76339c-3.17559,-3.17559 -4.76339,-7.00748 -4.76339,-11.49565c0,-4.48817 1.5878,-8.32006 4.76339,-11.49565c3.17559,-3.19677 7.00748,-4.79515 11.49565,-4.79515c2.75218,0 5.32441,0.65629 7.7167,1.96887v-7.55792c-2.49813,-0.868 -5.07037,-1.30199 -7.7167,-1.30199c-6.39353,0 -11.85555,2.26526 -16.38607,6.79577c-4.53052,4.53052 -6.79577,9.99254 -6.79577,16.38607c0,6.39353 2.26526,11.85555 6.79577,16.38607c4.53052,4.53052 9.99254,6.79577 16.38607,6.79577c2.64633,0 5.21856,-0.44458 7.7167,-1.33375v-7.52616c-2.39228,1.29141 -4.96451,1.93711 -7.7167,1.93711z" data-paper-data="{&quot;glyphName&quot;:&quot;C&quot;,&quot;glyphIndex&quot;:3,&quot;firstGlyphOfWord&quot;:true,&quot;word&quot;:2}" style="animation-play-state: paused;"></path><path d="M385.79442,202.4566v45.44276h23.18184v-6.89104h-16.2908v-38.55172z" data-paper-data="{&quot;glyphName&quot;:&quot;L&quot;,&quot;glyphIndex&quot;:4,&quot;word&quot;:2}" style="animation-play-state: paused;"></path><path d="M431.01489,248.31218c-4.44583,0 -8.25655,-1.57721 -11.43214,-4.73164c-3.15442,-3.15442 -4.73164,-6.96514 -4.73164,-11.43214v-29.72357h6.9228v29.72357c0,2.56165 0.89975,4.74222 2.69926,6.54173c1.82067,1.82067 4.00125,2.73101 6.54173,2.73101c2.56165,0 4.74222,-0.91034 6.54173,-2.73101c1.82067,-1.7995 2.73101,-3.98008 2.73101,-6.54173v-29.72357h6.9228v29.72357c0,4.467 -1.5878,8.27772 -4.76339,11.43214c-3.15442,3.15442 -6.96514,4.73164 -11.43214,4.73164z" data-paper-data="{&quot;glyphName&quot;:&quot;U&quot;,&quot;glyphIndex&quot;:5,&quot;word&quot;:2}" style="animation-play-state: paused;"></path><path d="M461.97694,221.60543h7.36738c1.69365,0 3.13325,-0.60336 4.31881,-1.81009c1.20673,-1.18556 1.81009,-2.62516 1.81009,-4.31881c0,-1.69365 -0.60336,-3.13325 -1.81009,-4.31881c-1.18556,-1.20673 -2.62516,-1.81009 -4.31881,-1.81009h-7.36738zM461.97694,241.00832h9.8761c1.71482,0 3.18618,-0.61395 4.41408,-1.84184c1.20673,-1.2279 1.81009,-2.70984 1.81009,-4.44583c0,-1.71482 -0.60336,-3.17559 -1.81009,-4.38232c-1.2279,-1.2279 -2.69926,-1.84184 -4.41408,-1.84184h-9.8761zM455.0859,247.89936v-45.44276h14.25842c3.59901,0 6.66875,1.27024 9.20922,3.81071c2.54048,2.56165 3.81071,5.63139 3.81071,9.20922c0,3.19677 -1.02678,6.00187 -3.08033,8.41533c1.75716,1.20673 3.13325,2.75218 4.12827,4.63637c1.05853,1.92653 1.5878,3.99066 1.5878,6.19241c0,3.64135 -1.29141,6.74285 -3.87423,9.30449c-2.56165,2.58282 -5.65256,3.87423 -9.27274,3.87423z" data-paper-data="{&quot;glyphName&quot;:&quot;B&quot;,&quot;glyphIndex&quot;:6,&quot;lastGlyphOfWord&quot;:true,&quot;word&quot;:2}" style="animation-play-state: paused;"></path></g><g data-paper-data="{&quot;isIcon&quot;:&quot;true&quot;,&quot;iconType&quot;:&quot;icon&quot;,&quot;rawIconId&quot;:&quot;1608371&quot;,&quot;selectedEffects&quot;:{&quot;container&quot;:&quot;&quot;,&quot;transformation&quot;:&quot;&quot;,&quot;pattern&quot;:&quot;&quot;},&quot;isDetailed&quot;:true,&quot;iconStyle&quot;:&quot;standalone&quot;,&quot;bounds&quot;:{&quot;x&quot;:65.00000000000001,&quot;y&quot;:199.44874290667872,&quot;width&quot;:100.98901984844541,&quot;height&quot;:71.10251418664257},&quot;fillRule&quot;:&quot;evenodd&quot;,&quot;suitableAsStandaloneIcon&quot;:true}" fill-rule="evenodd" style="animation-play-state: paused;"><path d="M165.30885,247.38099c-1.17371,-7.46752 -6.78641,-36.64751 -13.39553,-40.52321c-0.21881,-0.12792 -0.63735,-0.29623 -1.20064,-0.48923c-0.93246,-1.47331 -1.92439,-2.97691 -2.32497,-3.21143c-1.70558,-0.99978 -14.71286,-4.50071 -17.36773,-3.54469l-3.1946,1.52605l-0.02357,0.20422h-24.61307l-0.02357,-0.20422l-3.1946,-1.52605c-2.65487,-0.95602 -15.66216,2.54602 -17.36773,3.54469c-0.40059,0.23452 -1.39364,1.737 -2.32497,3.21143c-0.40956,0.14037 -0.7426,0.26762 -0.97801,0.37579c0.01313,-0.00628 0.02637,-0.01257 0.03995,-0.01897c-0.03378,0.01537 -0.06519,0.03019 -0.0947,0.04466c-0.06474,0.03097 -0.12096,0.06026 -0.16786,0.08775c-6.61136,3.87571 -12.22406,33.05569 -13.39777,40.52321c-0.94368,6.01104 -3.05882,20.6117 11.66414,23.16446c0.7647,0.13667 2.88524,-2.15363 5.71268,-5.2074c5.34205,-5.76957 13.20713,-14.26425 19.21795,-14.26425h26.43984c6.0116,0 13.8787,8.4967 19.22076,14.26627c2.82632,3.05254 4.94584,5.34172 5.70987,5.20538c14.72408,-2.55276 12.60894,-17.15341 11.66414,-23.16446zM144.45366,214.73935c-1.6865,0 -3.05658,-1.37232 -3.05658,-3.0577c0,-1.6865 1.37007,-3.05882 3.05658,-3.05882c1.68538,0 3.05658,1.37232 3.05658,3.05882c0,1.6865 -1.37119,3.0577 -3.05658,3.0577zM87.32237,226.96341c-4.485,0 -8.13517,-3.64904 -8.13517,-8.13517c0,-4.48612 3.64904,-8.13517 8.13517,-8.13517c4.48725,0 8.13629,3.64904 8.13629,8.13517c0.00112,4.48612 -3.64904,8.13517 -8.13629,8.13517zM87.32237,211.61432c-3.97669,0 -7.21393,3.23611 -7.21393,7.21505c0,3.97669 3.23611,7.21393 7.21393,7.21393c3.97894,0 7.21617,-3.23611 7.21617,-7.21393c0,-3.97894 -3.23723,-7.21505 -7.21617,-7.21505zM87.32461,225.00087c-3.4134,0 -6.17038,-2.76034 -6.17038,-6.16926c0,-3.41228 2.7581,-6.17375 6.17038,-6.17375c3.40555,0 6.16814,2.76147 6.16814,6.17375c0,3.40779 -2.76259,6.16926 -6.16814,6.16926zM87.32461,214.1985c-2.56286,0 -4.6275,2.07475 -4.6275,4.63199c0,2.55724 2.06465,4.62863 4.6275,4.62863c2.55276,0 4.62526,-2.07138 4.62526,-4.62863c0,-2.55724 -2.0725,-4.63199 -4.62526,-4.63199zM87.32237,222.53788c-2.04333,0 -3.70178,-1.65957 -3.70178,-3.70627c0,-2.04557 1.65957,-3.7029 3.70178,-3.7029c2.04781,0 3.70066,1.65845 3.70066,3.7029c0,2.04669 -1.65284,3.70627 -3.70066,3.70627zM137.3856,221.80852c-1.68538,0 -3.05658,-1.37232 -3.05658,-3.0577c0,-1.6865 1.37119,-3.0577 3.05658,-3.0577c1.6865,0 3.0577,1.37119 3.0577,3.0577c-0.00112,1.68538 -1.37119,3.0577 -3.0577,3.0577zM151.5666,221.80852c-1.68538,0 -3.05658,-1.37232 -3.05658,-3.0577c0,-1.6865 1.37119,-3.0577 3.05658,-3.0577c1.6865,0 3.0577,1.37119 3.0577,3.0577c0,1.68538 -1.37119,3.0577 -3.0577,3.0577zM108.86316,221.18576c-1.17034,0 -2.123,-0.95153 -2.123,-2.12412c0,-1.17258 0.95265,-2.12412 2.123,-2.12412c1.17146,0 2.12412,0.95153 2.12412,2.12412c0,1.17258 -0.95153,2.12412 -2.12412,2.12412zM123.81503,216.93865c1.17258,0 2.12412,0.95265 2.12412,2.12412c0,1.17146 -0.95153,2.12412 -2.12412,2.12412c-1.17258,0 -2.12412,-0.95265 -2.12412,-2.12412c0,-1.17146 0.95153,-2.12412 2.12412,-2.12412zM110.05818,218.60383h-0.65754v-0.50719c0,-0.0763 -0.06284,-0.13802 -0.13802,-0.13802h-1.59225c-0.0763,0 -0.13802,0.06171 -0.13802,0.13802v1.28704c0,0.0763 0.06171,0.13802 0.13802,0.13802h0.65754v0.50719c0,0.0763 0.06171,0.13802 0.13802,0.13802h1.59225c0.0763,0 0.13802,-0.06171 0.13802,-0.13802v-1.28704c0,-0.07742 -0.06059,-0.13802 -0.13802,-0.13802zM122.88033,218.36146c0,-0.07518 0.06284,-0.13802 0.13802,-0.13802h1.59225c0.0763,0 0.13802,0.06284 0.13802,0.13802c0,0.0763 -0.06171,0.13802 -0.13802,0.13802h-1.59225c-0.07518,0 -0.13802,-0.06171 -0.13802,-0.13802zM108.32792,218.74185v0.50382h-0.51953v-1.01101h1.31622v0.36917h-0.65867c-0.07742,0 -0.13802,0.06059 -0.13802,0.13802zM109.92017,219.89087h-1.31622v-1.01101h1.31622zM122.88033,219.06276c0,-0.0763 0.06284,-0.13802 0.13802,-0.13802h1.59225c0.0763,0 0.13802,0.06171 0.13802,0.13802c0,0.0763 -0.06171,0.13802 -0.13802,0.13802h-1.59225c-0.07518,0 -0.13802,-0.06171 -0.13802,-0.13802zM122.88033,219.76519c0,-0.0763 0.06284,-0.13802 0.13802,-0.13802h1.59225c0.0763,0 0.13802,0.06171 0.13802,0.13802c0,0.0763 -0.06171,0.13802 -0.13802,0.13802h-1.59225c-0.07518,0 -0.13802,-0.06171 -0.13802,-0.13802zM144.45366,228.87658c-1.6865,0 -3.05658,-1.37232 -3.05658,-3.0577c0,-1.68538 1.37007,-3.0577 3.05658,-3.0577c1.68538,0 3.05658,1.37232 3.05658,3.0577c0,1.68538 -1.37119,3.0577 -3.05658,3.0577zM129.77446,244.68684c-4.485,0 -8.13404,-3.64904 -8.13404,-8.13517c0,-4.48612 3.64904,-8.13517 8.13404,-8.13517c4.48612,0 8.13629,3.64904 8.13629,8.13517c0,4.48612 -3.65016,8.13517 -8.13629,8.13517zM109.92915,239.10556h-4.67015v4.40645c0,0 -0.92124,0.45445 -2.48431,0.45445c-1.56307,0 -2.48543,-0.45445 -2.48543,-0.45445v-4.40645h-4.40533c0,0 -0.45557,-0.92124 -0.45557,-2.48543c0,-1.56195 0.45557,-2.48431 0.45557,-2.48431h4.40533v-4.6679c0,0 0.92236,-0.45669 2.48543,-0.45669c1.56307,0 2.48431,0.45669 2.48431,0.45669v4.6679h4.67015c0,0 0.45557,0.92236 0.45557,2.48431c0,1.56419 -0.45557,2.48543 -0.45557,2.48543zM129.77446,229.33663c-3.97669,0 -7.21393,3.23723 -7.21393,7.21505c0,3.97782 3.23723,7.2128 7.21393,7.2128c3.97782,0 7.21617,-3.23499 7.21617,-7.2128c0,-3.97782 -3.23835,-7.21505 -7.21617,-7.21505zM129.7767,242.72318c-3.4134,0 -6.17038,-2.76147 -6.17038,-6.16926c0,-3.41228 2.7581,-6.17375 6.17038,-6.17375c3.40555,0 6.16814,2.76147 6.16814,6.17375c0,3.40779 -2.76259,6.16926 -6.16814,6.16926zM129.7767,231.92081c-2.56286,0 -4.6275,2.07475 -4.6275,4.63199c0,2.55724 2.06465,4.62863 4.6275,4.62863c2.55276,0 4.62526,-2.07138 4.62526,-4.62863c0,-2.55724 -2.0725,-4.63199 -4.62526,-4.63199zM129.77446,240.26019c-2.04333,0 -3.70178,-1.65957 -3.70178,-3.70627c0,-2.04557 1.65957,-3.7029 3.70178,-3.7029c2.04781,0 3.70066,1.65845 3.70066,3.7029c0,2.04669 -1.65284,3.70627 -3.70066,3.70627z" data-paper-data="{&quot;isPathIcon&quot;:true}" style="animation-play-state: paused;"></path></g></g></g><g fill-rule="none" font-family="none" font-weight="none" font-size="none" text-anchor="none" style="mix-blend-mode: normal; animation-play-state: paused;" id="interstellar-group"><g data-paper-data="{&quot;isGlobalGroup&quot;:true,&quot;bounds&quot;:{&quot;x&quot;:65.00000000000001,&quot;y&quot;:199.44874290667872,&quot;width&quot;:420,&quot;height&quot;:71.10251418664257}}" style="animation-play-state: paused;"><g data-paper-data="{&quot;isSecondaryText&quot;:true}" fill-rule="nonzero" style="animation-play-state: paused;"><path d="M205.44002,266.92572c-1.35999,0 -2.52257,-0.48258 -3.48772,-1.44773c-0.96516,-0.96516 -1.44773,-2.12773 -1.44773,-3.48772c0,-1.35999 0.48258,-2.52257 1.44773,-3.48772c0.96516,-0.96516 2.12773,-1.44773 3.48772,-1.44773c0.97064,0 1.86451,0.26597 2.6816,0.7979v-1.25032c-0.84451,-0.42226 -1.73838,-0.63338 -2.6816,-0.63338c-1.6616,0 -3.07918,0.58951 -4.25272,1.76854c-1.17903,1.17354 -1.76854,2.59111 -1.76854,4.25272c0,1.6616 0.58951,3.07918 1.76854,4.25272c1.17354,1.17903 2.59111,1.76854 4.25272,1.76854c0.94322,0 1.83709,-0.21113 2.6816,-0.63338v-1.25032c-0.81709,0.53193 -1.71096,0.7979 -2.6816,0.7979z" data-paper-data="{&quot;glyphName&quot;:&quot;C&quot;,&quot;glyphIndex&quot;:0,&quot;firstGlyphOfWord&quot;:true,&quot;word&quot;:1}" style="animation-play-state: paused;"></path><path d="M228.40489,257.06303c-1.35999,0 -2.52257,0.48258 -3.48772,1.44773c-0.96516,0.96516 -1.44773,2.12773 -1.44773,3.48772c0,1.35999 0.48258,2.52257 1.44773,3.48772c0.96516,0.96516 2.12773,1.44773 3.48772,1.44773c1.35999,0 2.52257,-0.48258 3.48772,-1.44773c0.96516,-0.96516 1.44773,-2.12773 1.44773,-3.48772c0,-1.35999 -0.48258,-2.52257 -1.44773,-3.48772c-0.96516,-0.96516 -2.12773,-1.44773 -3.48772,-1.44773zM228.40489,268.01974c-1.6616,0 -3.07918,-0.58951 -4.25272,-1.76854c-1.17903,-1.17354 -1.76854,-2.59111 -1.76854,-4.25272c0,-1.6616 0.58951,-3.08192 1.76854,-4.26094c1.17354,-1.17354 2.59111,-1.76031 4.25272,-1.76031c1.6616,0 3.08192,0.58677 4.26094,1.76031c1.17354,1.17903 1.76031,2.59934 1.76031,4.26094c0,1.6616 -0.58677,3.07918 -1.76031,4.25272c-1.17903,1.17903 -2.59934,1.76854 -4.26094,1.76854z" data-paper-data="{&quot;glyphName&quot;:&quot;O&quot;,&quot;glyphIndex&quot;:1,&quot;word&quot;:1}" style="animation-play-state: paused;"></path><path d="M256.5081,256.08416v9.84624l-5.88142,-9.84624h-1.17628v11.81219h1.0858v-9.84624l5.88965,9.84624h1.16806v-11.81219z" data-paper-data="{&quot;glyphName&quot;:&quot;N&quot;,&quot;glyphIndex&quot;:2,&quot;word&quot;:1}" style="animation-play-state: paused;"></path><path d="M270.76284,256.08416v1.0858h3.10111v10.72639h1.0858v-10.72639h3.09289v-1.0858z" data-paper-data="{&quot;glyphName&quot;:&quot;T&quot;,&quot;glyphIndex&quot;:3,&quot;word&quot;:1}" style="animation-play-state: paused;"></path><path d="M292.40956,261.47204v-4.30207h3.15869c0.59225,0 1.09951,0.21113 1.52177,0.63338c0.41677,0.42226 0.62516,0.92951 0.62516,1.52177c0,0.59225 -0.20839,1.09951 -0.62516,1.52177c-0.42226,0.41677 -0.92951,0.62516 -1.52177,0.62516zM296.40728,262.4509c0.69645,-0.18645 1.26677,-0.56484 1.71096,-1.13516c0.45516,-0.58677 0.68274,-1.25032 0.68274,-1.99063c0,-0.89387 -0.31532,-1.65612 -0.94596,-2.28676c-0.63064,-0.63613 -1.3929,-0.95419 -2.28676,-0.95419h-4.24449v11.80397h1.0858v-5.33029h2.82966l2.77208,5.33852h1.21741z" data-paper-data="{&quot;glyphName&quot;:&quot;R&quot;,&quot;glyphIndex&quot;:4,&quot;word&quot;:1}" style="animation-play-state: paused;"></path><path d="M318.86773,257.06303c-1.35999,0 -2.52257,0.48258 -3.48772,1.44773c-0.96516,0.96516 -1.44773,2.12773 -1.44773,3.48772c0,1.35999 0.48258,2.52257 1.44773,3.48772c0.96516,0.96516 2.12773,1.44773 3.48772,1.44773c1.35999,0 2.52257,-0.48258 3.48772,-1.44773c0.96516,-0.96516 1.44773,-2.12773 1.44773,-3.48772c0,-1.35999 -0.48258,-2.52257 -1.44773,-3.48772c-0.96516,-0.96516 -2.12773,-1.44773 -3.48772,-1.44773zM318.86773,268.01974c-1.6616,0 -3.07918,-0.58951 -4.25272,-1.76854c-1.17903,-1.17354 -1.76854,-2.59111 -1.76854,-4.25272c0,-1.6616 0.58951,-3.08192 1.76854,-4.26094c1.17354,-1.17354 2.59111,-1.76031 4.25272,-1.76031c1.6616,0 3.08192,0.58677 4.26094,1.76031c1.17354,1.17903 1.76031,2.59934 1.76031,4.26094c0,1.6616 -0.58677,3.07918 -1.76031,4.25272c-1.17903,1.17903 -2.59934,1.76854 -4.26094,1.76854z" data-paper-data="{&quot;glyphName&quot;:&quot;O&quot;,&quot;glyphIndex&quot;:5,&quot;word&quot;:1}" style="animation-play-state: paused;"></path><path d="M339.34335,256.08416v11.81219h6.57238v-1.0858h-5.48658v-10.72639z" data-paper-data="{&quot;glyphName&quot;:&quot;L&quot;,&quot;glyphIndex&quot;:6,&quot;lastGlyphOfWord&quot;:true,&quot;word&quot;:1}" style="animation-play-state: paused;"></path></g><g data-paper-data="{&quot;isPrimaryText&quot;:true}" fill-rule="nonzero" style="animation-play-state: paused;"><path d="M228.1579,202.4566l-28.73913,45.44276h8.16128l6.7005,-10.60649h15.43339v10.60649h6.9228v-45.44276zM229.71394,212.9043v17.49753h-11.08283z" data-paper-data="{&quot;glyphName&quot;:&quot;A&quot;,&quot;glyphIndex&quot;:0,&quot;firstGlyphOfWord&quot;:true,&quot;word&quot;:1}" style="animation-play-state: paused;"></path><path d="M250.92691,221.85948v-12.51184h9.8761c1.71482,0 3.18618,0.61395 4.41408,1.84184c1.20673,1.2279 1.81009,2.70984 1.81009,4.44583c0,1.71482 -0.60336,3.17559 -1.81009,4.38232c-1.2279,1.2279 -2.69926,1.84184 -4.41408,1.84184zM265.94747,227.70257c2.37111,-1.01619 4.28705,-2.60399 5.74783,-4.76339c1.50311,-2.20175 2.25467,-4.63637 2.25467,-7.30387c0,-3.64135 -1.29141,-6.74285 -3.87423,-9.30449c-2.56165,-2.58282 -5.65256,-3.87423 -9.27274,-3.87423h-16.76714v45.44276h6.89104v-19.14884h7.78021l9.93961,19.14884h7.78021z" data-paper-data="{&quot;glyphName&quot;:&quot;R&quot;,&quot;glyphIndex&quot;:1,&quot;word&quot;:1}" style="animation-play-state: paused;"></path><path d="M320.15488,202.4566l-16.19553,37.09095l-16.005,-37.09095h-7.2086v45.44276h6.89104v-28.67562l12.41658,28.67562h7.78021l12.63887,-28.86616v28.86616h6.89104v-45.44276z" data-paper-data="{&quot;glyphName&quot;:&quot;M&quot;,&quot;glyphIndex&quot;:2,&quot;lastGlyphOfWord&quot;:true,&quot;word&quot;:1}" style="animation-play-state: paused;"></path><path d="M372.36165,241.42114c-4.48817,0 -8.32006,-1.5878 -11.49565,-4.76339c-3.17559,-3.17559 -4.76339,-7.00748 -4.76339,-11.49565c0,-4.48817 1.5878,-8.32006 4.76339,-11.49565c3.17559,-3.19677 7.00748,-4.79515 11.49565,-4.79515c2.75218,0 5.32441,0.65629 7.7167,1.96887v-7.55792c-2.49813,-0.868 -5.07037,-1.30199 -7.7167,-1.30199c-6.39353,0 -11.85555,2.26526 -16.38607,6.79577c-4.53052,4.53052 -6.79577,9.99254 -6.79577,16.38607c0,6.39353 2.26526,11.85555 6.79577,16.38607c4.53052,4.53052 9.99254,6.79577 16.38607,6.79577c2.64633,0 5.21856,-0.44458 7.7167,-1.33375v-7.52616c-2.39228,1.29141 -4.96451,1.93711 -7.7167,1.93711z" data-paper-data="{&quot;glyphName&quot;:&quot;C&quot;,&quot;glyphIndex&quot;:3,&quot;firstGlyphOfWord&quot;:true,&quot;word&quot;:2}" style="animation-play-state: paused;"></path><path d="M385.79442,202.4566v45.44276h23.18184v-6.89104h-16.2908v-38.55172z" data-paper-data="{&quot;glyphName&quot;:&quot;L&quot;,&quot;glyphIndex&quot;:4,&quot;word&quot;:2}" style="animation-play-state: paused;"></path><path d="M431.01489,248.31218c-4.44583,0 -8.25655,-1.57721 -11.43214,-4.73164c-3.15442,-3.15442 -4.73164,-6.96514 -4.73164,-11.43214v-29.72357h6.9228v29.72357c0,2.56165 0.89975,4.74222 2.69926,6.54173c1.82067,1.82067 4.00125,2.73101 6.54173,2.73101c2.56165,0 4.74222,-0.91034 6.54173,-2.73101c1.82067,-1.7995 2.73101,-3.98008 2.73101,-6.54173v-29.72357h6.9228v29.72357c0,4.467 -1.5878,8.27772 -4.76339,11.43214c-3.15442,3.15442 -6.96514,4.73164 -11.43214,4.73164z" data-paper-data="{&quot;glyphName&quot;:&quot;U&quot;,&quot;glyphIndex&quot;:5,&quot;word&quot;:2}" style="animation-play-state: paused;"></path><path d="M461.97694,221.60543h7.36738c1.69365,0 3.13325,-0.60336 4.31881,-1.81009c1.20673,-1.18556 1.81009,-2.62516 1.81009,-4.31881c0,-1.69365 -0.60336,-3.13325 -1.81009,-4.31881c-1.18556,-1.20673 -2.62516,-1.81009 -4.31881,-1.81009h-7.36738zM461.97694,241.00832h9.8761c1.71482,0 3.18618,-0.61395 4.41408,-1.84184c1.20673,-1.2279 1.81009,-2.70984 1.81009,-4.44583c0,-1.71482 -0.60336,-3.17559 -1.81009,-4.38232c-1.2279,-1.2279 -2.69926,-1.84184 -4.41408,-1.84184h-9.8761zM455.0859,247.89936v-45.44276h14.25842c3.59901,0 6.66875,1.27024 9.20922,3.81071c2.54048,2.56165 3.81071,5.63139 3.81071,9.20922c0,3.19677 -1.02678,6.00187 -3.08033,8.41533c1.75716,1.20673 3.13325,2.75218 4.12827,4.63637c1.05853,1.92653 1.5878,3.99066 1.5878,6.19241c0,3.64135 -1.29141,6.74285 -3.87423,9.30449c-2.56165,2.58282 -5.65256,3.87423 -9.27274,3.87423z" data-paper-data="{&quot;glyphName&quot;:&quot;B&quot;,&quot;glyphIndex&quot;:6,&quot;lastGlyphOfWord&quot;:true,&quot;word&quot;:2}" style="animation-play-state: paused;"></path></g><g data-paper-data="{&quot;isIcon&quot;:&quot;true&quot;,&quot;iconType&quot;:&quot;icon&quot;,&quot;rawIconId&quot;:&quot;1608371&quot;,&quot;selectedEffects&quot;:{&quot;container&quot;:&quot;&quot;,&quot;transformation&quot;:&quot;&quot;,&quot;pattern&quot;:&quot;&quot;},&quot;isDetailed&quot;:true,&quot;iconStyle&quot;:&quot;standalone&quot;,&quot;bounds&quot;:{&quot;x&quot;:65.00000000000001,&quot;y&quot;:199.44874290667872,&quot;width&quot;:100.98901984844541,&quot;height&quot;:71.10251418664257},&quot;fillRule&quot;:&quot;evenodd&quot;,&quot;suitableAsStandaloneIcon&quot;:true}" fill-rule="evenodd" style="animation-play-state: paused;"><path d="M165.30885,247.38099c-1.17371,-7.46752 -6.78641,-36.64751 -13.39553,-40.52321c-0.21881,-0.12792 -0.63735,-0.29623 -1.20064,-0.48923c-0.93246,-1.47331 -1.92439,-2.97691 -2.32497,-3.21143c-1.70558,-0.99978 -14.71286,-4.50071 -17.36773,-3.54469l-3.1946,1.52605l-0.02357,0.20422h-24.61307l-0.02357,-0.20422l-3.1946,-1.52605c-2.65487,-0.95602 -15.66216,2.54602 -17.36773,3.54469c-0.40059,0.23452 -1.39364,1.737 -2.32497,3.21143c-0.40956,0.14037 -0.7426,0.26762 -0.97801,0.37579c0.01313,-0.00628 0.02637,-0.01257 0.03995,-0.01897c-0.03378,0.01537 -0.06519,0.03019 -0.0947,0.04466c-0.06474,0.03097 -0.12096,0.06026 -0.16786,0.08775c-6.61136,3.87571 -12.22406,33.05569 -13.39777,40.52321c-0.94368,6.01104 -3.05882,20.6117 11.66414,23.16446c0.7647,0.13667 2.88524,-2.15363 5.71268,-5.2074c5.34205,-5.76957 13.20713,-14.26425 19.21795,-14.26425h26.43984c6.0116,0 13.8787,8.4967 19.22076,14.26627c2.82632,3.05254 4.94584,5.34172 5.70987,5.20538c14.72408,-2.55276 12.60894,-17.15341 11.66414,-23.16446zM144.45366,214.73935c-1.6865,0 -3.05658,-1.37232 -3.05658,-3.0577c0,-1.6865 1.37007,-3.05882 3.05658,-3.05882c1.68538,0 3.05658,1.37232 3.05658,3.05882c0,1.6865 -1.37119,3.0577 -3.05658,3.0577zM87.32237,226.96341c-4.485,0 -8.13517,-3.64904 -8.13517,-8.13517c0,-4.48612 3.64904,-8.13517 8.13517,-8.13517c4.48725,0 8.13629,3.64904 8.13629,8.13517c0.00112,4.48612 -3.64904,8.13517 -8.13629,8.13517zM87.32237,211.61432c-3.97669,0 -7.21393,3.23611 -7.21393,7.21505c0,3.97669 3.23611,7.21393 7.21393,7.21393c3.97894,0 7.21617,-3.23611 7.21617,-7.21393c0,-3.97894 -3.23723,-7.21505 -7.21617,-7.21505zM87.32461,225.00087c-3.4134,0 -6.17038,-2.76034 -6.17038,-6.16926c0,-3.41228 2.7581,-6.17375 6.17038,-6.17375c3.40555,0 6.16814,2.76147 6.16814,6.17375c0,3.40779 -2.76259,6.16926 -6.16814,6.16926zM87.32461,214.1985c-2.56286,0 -4.6275,2.07475 -4.6275,4.63199c0,2.55724 2.06465,4.62863 4.6275,4.62863c2.55276,0 4.62526,-2.07138 4.62526,-4.62863c0,-2.55724 -2.0725,-4.63199 -4.62526,-4.63199zM87.32237,222.53788c-2.04333,0 -3.70178,-1.65957 -3.70178,-3.70627c0,-2.04557 1.65957,-3.7029 3.70178,-3.7029c2.04781,0 3.70066,1.65845 3.70066,3.7029c0,2.04669 -1.65284,3.70627 -3.70066,3.70627zM137.3856,221.80852c-1.68538,0 -3.05658,-1.37232 -3.05658,-3.0577c0,-1.6865 1.37119,-3.0577 3.05658,-3.0577c1.6865,0 3.0577,1.37119 3.0577,3.0577c-0.00112,1.68538 -1.37119,3.0577 -3.0577,3.0577zM151.5666,221.80852c-1.68538,0 -3.05658,-1.37232 -3.05658,-3.0577c0,-1.6865 1.37119,-3.0577 3.05658,-3.0577c1.6865,0 3.0577,1.37119 3.0577,3.0577c0,1.68538 -1.37119,3.0577 -3.0577,3.0577zM108.86316,221.18576c-1.17034,0 -2.123,-0.95153 -2.123,-2.12412c0,-1.17258 0.95265,-2.12412 2.123,-2.12412c1.17146,0 2.12412,0.95153 2.12412,2.12412c0,1.17258 -0.95153,2.12412 -2.12412,2.12412zM123.81503,216.93865c1.17258,0 2.12412,0.95265 2.12412,2.12412c0,1.17146 -0.95153,2.12412 -2.12412,2.12412c-1.17258,0 -2.12412,-0.95265 -2.12412,-2.12412c0,-1.17146 0.95153,-2.12412 2.12412,-2.12412zM110.05818,218.60383h-0.65754v-0.50719c0,-0.0763 -0.06284,-0.13802 -0.13802,-0.13802h-1.59225c-0.0763,0 -0.13802,0.06171 -0.13802,0.13802v1.28704c0,0.0763 0.06171,0.13802 0.13802,0.13802h0.65754v0.50719c0,0.0763 0.06171,0.13802 0.13802,0.13802h1.59225c0.0763,0 0.13802,-0.06171 0.13802,-0.13802v-1.28704c0,-0.07742 -0.06059,-0.13802 -0.13802,-0.13802zM122.88033,218.36146c0,-0.07518 0.06284,-0.13802 0.13802,-0.13802h1.59225c0.0763,0 0.13802,0.06284 0.13802,0.13802c0,0.0763 -0.06171,0.13802 -0.13802,0.13802h-1.59225c-0.07518,0 -0.13802,-0.06171 -0.13802,-0.13802zM108.32792,218.74185v0.50382h-0.51953v-1.01101h1.31622v0.36917h-0.65867c-0.07742,0 -0.13802,0.06059 -0.13802,0.13802zM109.92017,219.89087h-1.31622v-1.01101h1.31622zM122.88033,219.06276c0,-0.0763 0.06284,-0.13802 0.13802,-0.13802h1.59225c0.0763,0 0.13802,0.06171 0.13802,0.13802c0,0.0763 -0.06171,0.13802 -0.13802,0.13802h-1.59225c-0.07518,0 -0.13802,-0.06171 -0.13802,-0.13802zM122.88033,219.76519c0,-0.0763 0.06284,-0.13802 0.13802,-0.13802h1.59225c0.0763,0 0.13802,0.06171 0.13802,0.13802c0,0.0763 -0.06171,0.13802 -0.13802,0.13802h-1.59225c-0.07518,0 -0.13802,-0.06171 -0.13802,-0.13802zM144.45366,228.87658c-1.6865,0 -3.05658,-1.37232 -3.05658,-3.0577c0,-1.68538 1.37007,-3.0577 3.05658,-3.0577c1.68538,0 3.05658,1.37232 3.05658,3.0577c0,1.68538 -1.37119,3.0577 -3.05658,3.0577zM129.77446,244.68684c-4.485,0 -8.13404,-3.64904 -8.13404,-8.13517c0,-4.48612 3.64904,-8.13517 8.13404,-8.13517c4.48612,0 8.13629,3.64904 8.13629,8.13517c0,4.48612 -3.65016,8.13517 -8.13629,8.13517zM109.92915,239.10556h-4.67015v4.40645c0,0 -0.92124,0.45445 -2.48431,0.45445c-1.56307,0 -2.48543,-0.45445 -2.48543,-0.45445v-4.40645h-4.40533c0,0 -0.45557,-0.92124 -0.45557,-2.48543c0,-1.56195 0.45557,-2.48431 0.45557,-2.48431h4.40533v-4.6679c0,0 0.92236,-0.45669 2.48543,-0.45669c1.56307,0 2.48431,0.45669 2.48431,0.45669v4.6679h4.67015c0,0 0.45557,0.92236 0.45557,2.48431c0,1.56419 -0.45557,2.48543 -0.45557,2.48543zM129.77446,229.33663c-3.97669,0 -7.21393,3.23723 -7.21393,7.21505c0,3.97782 3.23723,7.2128 7.21393,7.2128c3.97782,0 7.21617,-3.23499 7.21617,-7.2128c0,-3.97782 -3.23835,-7.21505 -7.21617,-7.21505zM129.7767,242.72318c-3.4134,0 -6.17038,-2.76147 -6.17038,-6.16926c0,-3.41228 2.7581,-6.17375 6.17038,-6.17375c3.40555,0 6.16814,2.76147 6.16814,6.17375c0,3.40779 -2.76259,6.16926 -6.16814,6.16926zM129.7767,231.92081c-2.56286,0 -4.6275,2.07475 -4.6275,4.63199c0,2.55724 2.06465,4.62863 4.6275,4.62863c2.55276,0 4.62526,-2.07138 4.62526,-4.62863c0,-2.55724 -2.0725,-4.63199 -4.62526,-4.63199zM129.77446,240.26019c-2.04333,0 -3.70178,-1.65957 -3.70178,-3.70627c0,-2.04557 1.65957,-3.7029 3.70178,-3.7029c2.04781,0 3.70066,1.65845 3.70066,3.7029c0,2.04669 -1.65284,3.70627 -3.70066,3.70627z" data-paper-data="{&quot;isPathIcon&quot;:true}" style="animation-play-state: paused;"></path></g></g></g></defs><style style="animation-play-state: paused;">
            .strokeItem{
                fill: none;
                stroke-width: 2;
                stroke-linejoin: round;
                stroke-dasharray: 70 90;
                stroke-dashoffset: 0;
                animation: stroke 6000ms infinite linear;
            }

            @keyframes stroke {
                100% {
                    stroke-dashoffset: -160;
                }
            }
        </style><use href="#interstellar-group" class="strokeItem" style="animation-delay: 0ms; animation-play-state: paused;" stroke="#E56DB1" fill="none" stroke-width="2px"></use><use href="#interstellar-group" class="strokeItem" style="animation-delay: -3000ms; animation-play-state: paused;" stroke="#FFFFFF" fill="none" stroke-width="2px"></use></svg>