<svg xmlns:mydata="http://www.w3.org/2000/svg" mydata:contrastcolor="ffffff" mydata:template="SingleColorHex1" mydata:presentation="2.5" mydata:layouttype="undefined" mydata:specialfontid="undefined" mydata:id1="963" mydata:id2="485" mydata:companyname="ARM CLUB" mydata:companytagline="CONTROL" version="1.1" xmlns="http://www.w3.org/2000/svg" xmlns:xlink="http://www.w3.org/1999/xlink" viewBox="0 0 550 470" style="background-color: rgb(226, 225, 225); background-image: radial-gradient(circle closest-side, rgba(255, 255, 255, 0.07) 0%, rgba(255, 255, 255, 0) 100%);" width="640"  height="547" ><defs style="animation-play-state: paused;"><filter id="noise-squiggle" style="animation-play-state: paused;">
                <feTurbulence id="noise-turbulence" baseFrequency="0.03" numOctaves="2" result="noise" seed="1000" style="animation-play-state: paused;">
                    <animate attributeType="XML" attributeName="seed" from="1" to="25" dur="4s" repeatCount="indefinite" style="animation-play-state: paused;"></animate>
                </feTurbulence>
                <feDisplacementMap id="noise-displacement" in="SourceGraphic" in2="noise" scale="6" style="animation-play-state: paused;"></feDisplacementMap>
            </filter></defs><g fill="#3D3935" fill-rule="none" stroke="none" stroke-width="1" stroke-linecap="butt" stroke-linejoin="miter" stroke-miterlimit="10" stroke-dasharray="" stroke-dashoffset="0" font-family="none" font-weight="none" font-size="none" text-anchor="none" style="mix-blend-mode: normal; animation-play-state: paused;" filter="url(#noise-squiggle)"><g data-paper-data="{&quot;isGlobalGroup&quot;:true,&quot;bounds&quot;:{&quot;x&quot;:65,&quot;y&quot;:187.58730041642372,&quot;width&quot;:420,&quot;height&quot;:94.82539916715257}}" style="animation-play-state: paused;" fill="#3D3935"><g data-paper-data="{&quot;isSecondaryText&quot;:true}" fill-rule="nonzero" style="animation-play-state: paused;" fill="#3D3935"><path d="M239.53255,270.58786c-0.50328,-0.21882 -0.95733,-0.25164 -1.36215,-0.09847c-0.38293,0.15317 -0.72757,0.47046 -1.03392,0.95186c-0.64551,1.02845 -0.98468,2.42889 -1.01751,4.20132c-0.03282,1.77243 0.25164,3.17834 0.85339,4.21773c0.29541,0.49234 0.6291,0.82057 1.00109,0.98468c0.40481,0.16411 0.86433,0.14223 1.37856,-0.06565c0.14223,-0.0547 0.28446,-0.05197 0.4267,0.00821c0.14223,0.06018 0.2407,0.16138 0.29541,0.30361c0.0547,0.14223 0.05197,0.28173 -0.00821,0.41849c-0.06018,0.13676 -0.16138,0.23249 -0.30361,0.2872c-0.78775,0.30635 -1.49891,0.33643 -2.13348,0.09026c-0.63457,-0.24617 -1.16521,-0.73578 -1.5919,-1.46882c-0.7221,-1.21444 -1.06401,-2.81182 -1.02571,-4.79213c0.03829,-1.98031 0.4349,-3.56674 1.18983,-4.7593c0.45952,-0.7221 1.0093,-1.19803 1.64934,-1.42779c0.64004,-0.22976 1.34847,-0.18053 2.12528,0.1477c0.13129,0.0547 0.22702,0.15317 0.2872,0.29541c0.06018,0.14223 0.06018,0.28173 0,0.41849c-0.06018,0.13676 -0.16138,0.23523 -0.30361,0.29541c-0.14223,0.06018 -0.28446,0.05744 -0.4267,-0.00821z" data-paper-data="{&quot;glyphName&quot;:&quot;C&quot;,&quot;glyphIndex&quot;:0,&quot;firstGlyphOfWord&quot;:true,&quot;word&quot;:1}" style="animation-play-state: paused;" fill="#3D3935"></path><path d="M250.46646,270.27604c-0.56893,0.20788 -1.01751,0.8151 -1.34573,1.82166c-0.32823,1.06127 -0.45952,2.34136 -0.39387,3.84027c0.0547,1.43326 0.27352,2.63676 0.65646,3.61051c0.17505,0.44858 0.36652,0.77681 0.5744,0.98468c0.14223,0.14223 0.27352,0.20241 0.39387,0.18053c0.14223,-0.02188 0.30088,-0.1477 0.47593,-0.37746c0.20788,-0.29541 0.39387,-0.71116 0.55799,-1.24727c0.36105,-1.10503 0.56346,-2.39606 0.60722,-3.87309c0.04376,-1.50985 -0.08753,-2.7407 -0.39387,-3.69256c-0.15317,-0.47046 -0.33917,-0.80963 -0.55799,-1.01751c-0.16411,-0.17505 -0.35011,-0.25164 -0.55799,-0.22976zM250.58134,269.17648c0.47046,0 0.88622,0.186 1.24727,0.55799c0.32823,0.33917 0.59628,0.82057 0.80416,1.4442c0.36105,1.07221 0.51422,2.42889 0.45952,4.07002c-0.04376,1.58643 -0.26258,2.9814 -0.65646,4.1849c-0.20788,0.63457 -0.44858,1.14333 -0.7221,1.52626c-0.33917,0.49234 -0.73304,0.77681 -1.18162,0.85339c-0.49234,0.06565 -0.94639,-0.10394 -1.36215,-0.50875c-0.30635,-0.31729 -0.5744,-0.77134 -0.80416,-1.36215c-0.4267,-1.08315 -0.67287,-2.407 -0.73851,-3.97156c-0.07659,-1.61926 0.07659,-3.0197 0.45952,-4.20132c0.20788,-0.6674 0.4814,-1.21444 0.82057,-1.64114c0.39387,-0.50328 0.86433,-0.82057 1.41138,-0.95186c0.08753,-0.02188 0.17505,-0.02188 0.26258,0z" data-paper-data="{&quot;glyphName&quot;:&quot;O&quot;,&quot;glyphIndex&quot;:1,&quot;word&quot;:1}" style="animation-play-state: paused;" fill="#3D3935"></path><path d="M260.29878,281.84607c0.02188,-0.79869 0.08753,-2.07878 0.19694,-3.84027c0.01094,-0.21882 0.02188,-0.3884 0.03282,-0.50875c0.09847,-1.73961 0.15864,-3.09081 0.18053,-4.05361c0.01094,-1.40044 -0.04923,-2.56018 -0.18053,-3.47921c-0.01094,-0.03282 -0.01641,-0.06018 -0.01641,-0.08206c0,-0.13129 0.0465,-0.24891 0.1395,-0.35284c0.093,-0.10394 0.20514,-0.16685 0.33643,-0.18873c0.02188,-0.01094 0.04923,-0.01641 0.08206,-0.01641c0.13129,0 0.24891,0.0465 0.35284,0.1395c0.10394,0.093 0.16685,0.20514 0.18873,0.33643c0.13129,0.87527 0.37746,1.76696 0.73851,2.67506c0.21882,0.56893 0.59081,1.36762 1.11597,2.39606c0,0.01094 0.01094,0.03829 0.03282,0.08206l0.03282,0.06565c0.03282,0.0547 0.06018,0.09847 0.08206,0.13129c0.53611,1.07221 0.92451,1.93107 1.16521,2.57659c0.10941,0.29541 0.27899,0.72757 0.50875,1.2965c0.04376,0.13129 0.08753,0.24617 0.13129,0.34464c0,-0.15317 0,-0.31729 0,-0.49234c0.01094,-0.33917 0.02188,-0.72757 0.03282,-1.16521c0,-0.15317 0,-0.32823 0,-0.52516c0,-0.01094 0,-0.07932 0,-0.20514c0,-0.12582 0,-0.20514 0,-0.23797c0,-0.28446 0.00547,-0.47046 0.01641,-0.55799c0.01094,-0.33917 0.04376,-0.9081 0.09847,-1.70678c0.03282,-0.64551 0.06018,-1.14333 0.08206,-1.49344c0.0547,-1.35667 0,-2.43436 -0.16411,-3.23304c-0.02188,-0.15317 0.00821,-0.29267 0.09026,-0.41849c0.08206,-0.12582 0.19694,-0.20241 0.34464,-0.22976c0.1477,-0.02735 0.28446,0 0.41028,0.08206c0.12582,0.08206 0.20514,0.19967 0.23797,0.35284c0.17505,0.88622 0.23523,2.05142 0.18053,3.49563c-0.02188,0.36105 -0.0547,0.86433 -0.09847,1.50985c-0.04376,0.79869 -0.07112,1.36215 -0.08206,1.69037c-0.01094,0.06565 -0.01641,0.23523 -0.01641,0.50875c0,0.03282 0,0.11488 0,0.24617c0,0.13129 0,0.20241 0,0.21335c0,0.19694 0,0.37199 0,0.52516c-0.01094,0.43764 -0.02188,0.83151 -0.03282,1.18162c-0.01094,0.75492 -0.03282,1.36215 -0.06565,1.82166c-0.02188,0.27352 -0.04923,0.49781 -0.08206,0.67287c-0.02188,0.10941 -0.04376,0.20241 -0.06565,0.27899c-0.04376,0.13129 -0.09847,0.23523 -0.16411,0.31182c-0.06565,0.07659 -0.1477,0.13676 -0.24617,0.18053c-0.14223,0.0547 -0.28993,0.04923 -0.44311,-0.01641c-0.08753,-0.04376 -0.16411,-0.10941 -0.22976,-0.19694c-0.03282,-0.03282 -0.06018,-0.07659 -0.08206,-0.13129c-0.03282,-0.07659 -0.06565,-0.186 -0.09847,-0.32823v-0.01641c-0.01094,-0.04376 -0.01641,-0.07659 -0.01641,-0.09847l-0.01641,-0.01641c-0.09847,-0.25164 -0.18053,-0.46499 -0.24617,-0.64004c-0.10941,-0.28446 -0.27899,-0.71663 -0.50875,-1.2965c-0.22976,-0.57987 -0.39934,-1.01751 -0.50875,-1.31291c-0.21882,-0.61269 -0.59081,-1.43326 -1.11597,-2.46171c-0.02188,-0.04376 -0.04923,-0.093 -0.08206,-0.1477c-0.04376,-0.08753 -0.06565,-0.13676 -0.06565,-0.1477c-0.30635,-0.59081 -0.53611,-1.0558 -0.68928,-1.39497c-0.02188,0.85339 -0.07659,2.05142 -0.16411,3.59409c-0.01094,0.12035 -0.02188,0.28993 -0.03282,0.50875c-0.10941,1.75055 -0.17505,3.0197 -0.19694,3.80744c0,0.15317 -0.0547,0.28173 -0.16411,0.38567c-0.10941,0.10394 -0.2407,0.15317 -0.39387,0.1477c-0.15317,-0.00547 -0.28173,-0.06291 -0.38567,-0.17232c-0.10394,-0.10941 -0.15591,-0.2407 -0.15591,-0.39387z" data-paper-data="{&quot;glyphName&quot;:&quot;N&quot;,&quot;glyphIndex&quot;:2,&quot;word&quot;:1}" style="animation-play-state: paused;" fill="#3D3935"></path><path d="M273.11286,269.45547h0.26258c0.79869,0 1.3895,-0.00547 1.77243,-0.01641c0.97374,-0.01094 1.79978,-0.0547 2.47812,-0.13129c0.14223,-0.02188 0.27352,0.01641 0.39387,0.11488c0.12035,0.09847 0.18873,0.22155 0.20514,0.36926c0.01641,0.1477 -0.02188,0.28173 -0.11488,0.40208c-0.093,0.12035 -0.21608,0.186 -0.36926,0.19694c-0.49234,0.0547 -1.04486,0.09847 -1.65755,0.13129c0.01094,1.12692 0.02188,2.87199 0.03282,5.23523c0,0.28446 0,0.49234 0,0.62363c0.01094,2.12254 0.01641,3.80197 0.01641,5.0383c0,0.15317 -0.0547,0.28173 -0.16411,0.38567c-0.10941,0.10394 -0.23797,0.15591 -0.38567,0.15591c-0.1477,0 -0.27626,-0.05197 -0.38567,-0.15591c-0.10941,-0.10394 -0.16411,-0.23249 -0.16411,-0.38567c0,-1.22538 -0.00547,-2.89935 -0.01641,-5.02189c0,-0.15317 0,-0.36105 0,-0.62363c-0.01094,-2.36324 -0.02188,-4.10832 -0.03282,-5.23523c-0.32823,0.01094 -0.86433,0.01641 -1.60832,0.01641h-0.26258c-0.14223,0 -0.26805,-0.0547 -0.37746,-0.16411c-0.10941,-0.10941 -0.16411,-0.2407 -0.16411,-0.39387c0,-0.15317 0.0547,-0.28173 0.16411,-0.38567c0.10941,-0.10394 0.23523,-0.15591 0.37746,-0.15591z" data-paper-data="{&quot;glyphName&quot;:&quot;T&quot;,&quot;glyphIndex&quot;:3,&quot;word&quot;:1}" style="animation-play-state: paused;" fill="#3D3935"></path><path d="M286.73558,270.48939c0,0.98468 -0.03829,2.36871 -0.11488,4.15208c0.06565,-0.02188 0.1477,-0.03829 0.24617,-0.04923c0.0547,-0.01094 0.11488,-0.02188 0.18053,-0.03282c0.01094,0 0.03829,-0.00547 0.08206,-0.01641l0.06565,-0.01641c0.0547,-0.01094 0.093,-0.01641 0.11488,-0.01641c0.01094,0 0.02188,0 0.03282,0c0.67834,-0.19694 1.20897,-0.52516 1.5919,-0.98468c0.32823,-0.41576 0.49234,-0.86433 0.49234,-1.34573c0.01094,-0.44858 -0.14223,-0.82604 -0.45952,-1.13239c-0.35011,-0.35011 -0.85886,-0.54158 -1.52626,-0.5744c-0.28446,-0.01094 -0.51969,-0.00547 -0.70569,0.01641zM285.38984,281.89531c-0.06565,-1.47703 -0.04376,-3.48469 0.06565,-6.02298c0.01094,-0.16411 0.02188,-0.41576 0.03282,-0.75492c0.09847,-2.12254 0.1477,-3.71444 0.1477,-4.77571c0,-0.09847 0.00547,-0.18053 0.01641,-0.24617c0.01094,-0.12035 0.04376,-0.22976 0.09847,-0.32823c0.08753,-0.13129 0.20241,-0.22429 0.34464,-0.27899c0.0547,-0.02188 0.13129,-0.03829 0.22976,-0.04923l0.08206,-0.01641c0.04376,-0.01094 0.07112,-0.01641 0.08206,-0.01641c0.27352,-0.04376 0.60722,-0.0547 1.00109,-0.03282c0.94092,0.04376 1.69037,0.33917 2.24836,0.88622c0.53611,0.52516 0.79869,1.17068 0.78775,1.93654c0,0.73304 -0.25164,1.40591 -0.75492,2.0186c-0.52516,0.64551 -1.23632,1.09409 -2.13348,1.34573c-0.02188,0.01094 -0.08753,0.02735 -0.19694,0.04923c0.70022,1.02845 1.28556,1.93107 1.75602,2.70788c0.62363,1.05033 1.14333,2.04048 1.55908,2.97046c0.06565,0.14223 0.07112,0.28446 0.01641,0.4267c-0.0547,0.14223 -0.15317,0.24344 -0.29541,0.30361c-0.14223,0.06018 -0.28173,0.06291 -0.41849,0.00821c-0.13676,-0.0547 -0.23797,-0.15317 -0.30361,-0.29541c-0.40481,-0.89716 -0.9081,-1.84902 -1.50985,-2.85558c-0.45952,-0.76586 -1.02845,-1.64661 -1.70678,-2.64223c-0.09847,2.34136 -0.11488,4.21226 -0.04923,5.6127c0,0.15317 -0.04923,0.28446 -0.1477,0.39387c-0.09847,0.10941 -0.22429,0.16685 -0.37746,0.17232c-0.15317,0.00547 -0.28446,-0.04103 -0.39387,-0.1395c-0.10941,-0.09847 -0.16958,-0.22429 -0.18053,-0.37746z" data-paper-data="{&quot;glyphName&quot;:&quot;R&quot;,&quot;glyphIndex&quot;:4,&quot;word&quot;:1}" style="animation-play-state: paused;" fill="#3D3935"></path><path d="M301.00354,270.27604c-0.56893,0.20788 -1.01751,0.8151 -1.34573,1.82166c-0.32823,1.06127 -0.45952,2.34136 -0.39387,3.84027c0.0547,1.43326 0.27352,2.63676 0.65646,3.61051c0.17505,0.44858 0.36652,0.77681 0.5744,0.98468c0.14223,0.14223 0.27352,0.20241 0.39387,0.18053c0.14223,-0.02188 0.30088,-0.1477 0.47593,-0.37746c0.20788,-0.29541 0.39387,-0.71116 0.55799,-1.24727c0.36105,-1.10503 0.56346,-2.39606 0.60722,-3.87309c0.04376,-1.50985 -0.08753,-2.7407 -0.39387,-3.69256c-0.15317,-0.47046 -0.33917,-0.80963 -0.55799,-1.01751c-0.16411,-0.17505 -0.35011,-0.25164 -0.55799,-0.22976zM301.11842,269.17648c0.47046,0 0.88622,0.186 1.24727,0.55799c0.32823,0.33917 0.59628,0.82057 0.80416,1.4442c0.36105,1.07221 0.51422,2.42889 0.45952,4.07002c-0.04376,1.58643 -0.26258,2.9814 -0.65646,4.1849c-0.20788,0.63457 -0.44858,1.14333 -0.7221,1.52626c-0.33917,0.49234 -0.73304,0.77681 -1.18162,0.85339c-0.49234,0.06565 -0.94639,-0.10394 -1.36215,-0.50875c-0.30635,-0.31729 -0.5744,-0.77134 -0.80416,-1.36215c-0.4267,-1.08315 -0.67287,-2.407 -0.73851,-3.97156c-0.07659,-1.61926 0.07659,-3.0197 0.45952,-4.20132c0.20788,-0.6674 0.4814,-1.21444 0.82057,-1.64114c0.39387,-0.50328 0.86433,-0.82057 1.41138,-0.95186c0.08753,-0.02188 0.17505,-0.02188 0.26258,0z" data-paper-data="{&quot;glyphName&quot;:&quot;O&quot;,&quot;glyphIndex&quot;:5,&quot;word&quot;:1}" style="animation-play-state: paused;" fill="#3D3935"></path><path d="M312.15485,269.636c0.0547,1.26915 0.093,3.17834 0.11488,5.72758c0.01094,0.4814 0.01641,0.83698 0.01641,1.06674c0.02188,1.83808 0.0547,3.33698 0.09847,4.49672c0,0.02188 0,0.04376 0,0.06565c0.16411,0.02188 0.43764,0.02188 0.82057,0c0.02188,0 0.06018,0 0.11488,0c0.27352,-0.02188 0.47593,-0.03282 0.60722,-0.03282c0.2407,0 0.44858,0.02188 0.62363,0.06565c0.15317,0.03282 0.27079,0.11214 0.35284,0.23797c0.08206,0.12582 0.10667,0.26258 0.07385,0.41028c-0.03282,0.1477 -0.11488,0.26258 -0.24617,0.34464c-0.13129,0.08206 -0.27079,0.10667 -0.41849,0.07385c-0.1477,-0.03282 -0.45678,-0.03282 -0.92724,0c-0.02188,0 -0.04376,0 -0.06565,0c-0.02188,0 -0.03829,0 -0.04923,0c-0.33917,0.02188 -0.60722,0.02735 -0.80416,0.01641c-0.32823,-0.02188 -0.60722,-0.093 -0.83698,-0.21335c-0.09847,-0.06565 -0.18053,-0.1477 -0.24617,-0.24617c-0.03282,-0.06565 -0.06018,-0.13676 -0.08206,-0.21335c-0.02188,-0.07659 -0.03282,-0.16958 -0.03282,-0.27899c0,-0.03282 0.00547,-0.07659 0.01641,-0.13129v-0.01641v-0.01641v-0.01641v-0.01641c-0.04376,-1.17068 -0.07659,-2.67506 -0.09847,-4.51313c0,-0.2407 -0.00547,-0.59628 -0.01641,-1.06674c-0.02188,-2.5383 -0.06018,-4.43655 -0.11488,-5.69475c0,-0.15317 0.05197,-0.28446 0.15591,-0.39387c0.10394,-0.10941 0.22976,-0.16958 0.37746,-0.18053c0.1477,-0.01094 0.27899,0.03556 0.39387,0.1395c0.11488,0.10394 0.17232,0.23249 0.17232,0.38567z" data-paper-data="{&quot;glyphName&quot;:&quot;L&quot;,&quot;glyphIndex&quot;:6,&quot;lastGlyphOfWord&quot;:true,&quot;word&quot;:1}" style="animation-play-state: paused;" fill="#3D3935"></path></g><g data-paper-data="{&quot;isPrimaryText&quot;:true}" style="animation-play-state: paused;" fill="#3D3935"><path d="M117.01038,244.5297c-3.38765,-4.78256 -9.233,-16.40685 -11.49144,-23.71355c-2.78983,-9.233 -5.57966,-21.78723 -5.57966,-21.78723h-17.93461c0,0 -2.78983,12.55423 -5.57966,21.78723c-2.19201,7.30669 -8.03736,18.93098 -11.42501,23.71355h15.60976c1.19564,-3.65335 2.59056,-8.03736 3.45407,-11.35859c3.32122,-0.2657 5.11469,-0.39855 6.90815,-0.39855c1.79346,0 3.65335,0.13285 6.97457,0.39855c0.86352,3.32122 2.25843,7.70524 3.45407,11.35859zM90.97198,226.52866c-1.19564,0 -2.45771,-0.13285 -5.04826,-0.2657c2.25843,-8.36949 3.12195,-16.67255 5.04826,-21.98651c1.99273,5.38038 2.78983,13.61702 5.04826,21.98651c-2.52413,0.13285 -3.7862,0.2657 -5.04826,0.2657z" data-paper-data="{&quot;glyphName&quot;:&quot;A&quot;,&quot;glyphIndex&quot;:0,&quot;firstGlyphOfWord&quot;:true,&quot;word&quot;:1}" fill-rule="nonzero" style="animation-play-state: paused;" fill="#3D3935"></path><path d="M130.09601,244.66255c0,0 -1.26207,-9.83083 -1.46134,-19.66165h5.91178c2.39128,4.51687 4.98184,9.96367 8.63518,19.5288h12.68708c-0.73067,-1.12922 -7.041,-11.02647 -11.29216,-19.7945c5.91178,-1.19564 10.2958,-6.44318 10.2958,-12.68708c0,-7.17385 -5.77893,-12.95278 -12.95278,-12.95278l-23.84639,0.06642c0,0 1.46134,12.48781 1.46134,22.71718c0,10.76077 -1.46134,22.7836 -1.46134,22.7836zM141.65387,216.49856h-13.15205c-0.2657,-2.12558 -0.39855,-3.91905 -0.39855,-5.31396c0,-2.32486 0.2657,-3.65335 0.2657,-3.91905v-0.06642l13.2849,-0.06642c4.51687,0 6.7753,2.32486 6.7753,4.64971c0,2.39128 -2.25843,4.71614 -6.7753,4.71614z" data-paper-data="{&quot;glyphName&quot;:&quot;R&quot;,&quot;glyphIndex&quot;:1,&quot;word&quot;:1}" fill-rule="nonzero" style="animation-play-state: paused;" fill="#3D3935"></path><path d="M203.62792,244.5297c0,0 -1.46134,-12.48781 -1.46134,-22.71718c0,-10.69434 1.46134,-22.71718 1.46134,-22.71718h-12.02283c0,0 -4.51687,11.22574 -9.7644,20.59159c0,0.06642 -0.06642,0.13285 -0.13285,0.19927c-4.98184,-8.90088 -9.89725,-20.79087 -9.89725,-20.79087h-12.02283c0,0 1.52776,12.02283 1.52776,22.71718c0,10.22937 -1.52776,22.71718 -1.52776,22.71718h12.02283c-0.06642,-0.5314 -1.46134,-12.08926 -1.46134,-23.38142v-2.7234c3.12195,5.04826 5.64608,9.63155 9.29943,17.60249h4.18474c3.58692,-7.90452 6.17748,-12.55423 9.233,-17.60249v2.59056c0,10.96004 -1.39491,23.51427 -1.39491,23.51427z" data-paper-data="{&quot;glyphName&quot;:&quot;M&quot;,&quot;glyphIndex&quot;:2,&quot;lastGlyphOfWord&quot;:true,&quot;word&quot;:1}" fill-rule="nonzero" style="animation-play-state: paused;" fill="#3D3935"></path><path d="M372.87545,244.5297c0,0 -0.66424,-5.64608 -1.06279,-12.48781h-14.41412c-5.64608,0 -10.22937,-4.58329 -10.22937,-10.22937c0,-5.64608 4.58329,-10.22937 10.22937,-10.22937h14.34769c0.46497,-6.97457 1.12922,-12.48781 1.12922,-12.48781h-12.62065c-12.55423,0 -22.71718,10.16295 -22.71718,22.71718c0,12.55423 10.16295,22.71718 22.71718,22.71718z" data-paper-data="{&quot;glyphName&quot;:&quot;C&quot;,&quot;glyphIndex&quot;:3,&quot;firstGlyphOfWord&quot;:true,&quot;word&quot;:2}" fill-rule="nonzero" style="animation-play-state: paused;" fill="#3D3935"></path><path d="M403.89569,244.5297v-11.95641c-0.5314,0 -6.11105,1.39491 -12.55423,1.39491c-0.92994,0 -1.85989,0 -2.78983,-0.06642c-0.33212,-3.7862 -0.5314,-8.10379 -0.5314,-12.08926c0,-10.69434 1.46134,-22.71718 1.46134,-22.71718h-11.95641c0,0 1.46134,12.02283 1.46134,22.71718c0,10.22937 -1.46134,22.71718 -1.46134,22.71718c5.71251,-1.06279 10.36222,-1.39491 14.08199,-1.39491c7.50597,0 11.22574,1.39491 12.28853,1.39491z" data-paper-data="{&quot;glyphName&quot;:&quot;L&quot;,&quot;glyphIndex&quot;:4,&quot;word&quot;:2}" fill-rule="nonzero" style="animation-play-state: paused;" fill="#3D3935"></path><path d="M423.69019,244.7954c9.10016,0 18.26674,-7.17385 18.26674,-21.52154v-1.32849c0,-10.82719 1.46134,-22.7836 1.46134,-22.85003h-12.7535c0,0.13285 1.46134,11.69071 1.46134,22.45148v1.92631l0.06642,1.39491c0,3.91905 -0.73067,14.74624 -8.50234,15.34406c-7.83809,-0.59782 -8.56876,-11.42501 -8.56876,-15.34406l0.06642,-2.65698c0,-10.42865 1.46134,-23.11572 1.46134,-23.11572h-12.7535c0,0.06642 1.46134,11.62429 1.46134,22.25221v1.92631c0,14.34769 9.16658,21.52154 18.33316,21.52154z" data-paper-data="{&quot;glyphName&quot;:&quot;U&quot;,&quot;glyphIndex&quot;:5,&quot;word&quot;:2}" fill-rule="nonzero" style="animation-play-state: paused;" fill="#3D3935"></path><path d="M472.04722,244.66255c7.17385,0 12.95278,-5.84536 12.95278,-13.0192c0,-7.24027 -5.84536,-12.95278 -13.08563,-12.95278c5.44681,0 9.83083,-4.38402 9.83083,-9.83083c0,-5.38038 -4.38402,-9.7644 -9.83083,-9.7644h-23.71355c0,0 1.46134,12.02283 1.46134,22.71718c0,10.22937 -1.46134,22.71718 -1.46134,22.71718zM463.01349,212.97806c-1.59419,0 -2.78983,-0.13285 -2.78983,-0.13285l-0.2657,-7.57239c0,0 1.92631,-0.2657 4.18474,-0.2657c3.32122,0 7.37312,0.59782 7.37312,3.58692c0,3.7862 -5.18111,4.38402 -8.50234,4.38402zM463.41204,233.37038c-1.85989,0 -3.18838,-0.13285 -3.18838,-0.13285l-0.2657,-10.69434c0,0 1.66061,-0.2657 3.7862,-0.2657c3.98547,0 9.63155,0.92994 9.63155,6.04463c0,4.38402 -6.04463,5.04826 -9.96367,5.04826z" data-paper-data="{&quot;glyphName&quot;:&quot;B&quot;,&quot;glyphIndex&quot;:6,&quot;lastGlyphOfWord&quot;:true,&quot;word&quot;:2}" fill-rule="nonzero" style="animation-play-state: paused;" fill="#3D3935"></path><g data-paper-data="{&quot;isIcon&quot;:&quot;true&quot;,&quot;iconType&quot;:&quot;icon&quot;,&quot;rawIconId&quot;:&quot;1608371&quot;,&quot;selectedEffects&quot;:{&quot;container&quot;:&quot;&quot;,&quot;transformation&quot;:&quot;&quot;,&quot;pattern&quot;:&quot;&quot;},&quot;isDetailed&quot;:true,&quot;iconStyle&quot;:&quot;icon-in-text&quot;,&quot;bounds&quot;:{&quot;x&quot;:222.16035807341513,&quot;y&quot;:187.58730041642372,&quot;width&quot;:96.84482585495999,&quot;height&quot;:68.18474537716003},&quot;fillRule&quot;:&quot;evenodd&quot;,&quot;suitableAsStandaloneIcon&quot;:true}" fill-rule="evenodd" style="animation-play-state: paused;" fill="#3D3935"><path d="M318.35292,233.5526c-1.12555,-7.16108 -6.50792,-35.14364 -12.84583,-38.8603c-0.20983,-0.12267 -0.61119,-0.28407 -1.15137,-0.46916c-0.89419,-1.41285 -1.84542,-2.85475 -2.22957,-3.07964c-1.63559,-0.95875 -14.1091,-4.31602 -16.65503,-3.39923l-3.0635,1.46342l-0.0226,0.19584h-23.60305l-0.0226,-0.19584l-3.0635,-1.46342c-2.54592,-0.91679 -15.01944,2.44155 -16.65503,3.39923c-0.38415,0.22489 -1.33645,1.66572 -2.22957,3.07964c-0.39275,0.13461 -0.71213,0.25664 -0.93788,0.36037c0.01259,-0.00602 0.02529,-0.01205 0.03831,-0.01819c-0.03239,0.01474 -0.06252,0.02895 -0.09082,0.04282c-0.06209,0.0297 -0.116,0.05778 -0.16098,0.08415c-6.34006,3.71666 -11.72244,31.69921 -12.84798,38.8603c-0.90495,5.76437 -2.9333,19.76587 11.18549,22.21388c0.73332,0.13106 2.76684,-2.06525 5.47826,-4.99371c5.12283,-5.53281 12.66516,-13.6789 18.42932,-13.6789h25.35485c5.76491,0 13.30917,8.14803 18.43201,13.68084c2.71034,2.92728 4.74288,5.12252 5.47556,4.99177c14.11986,-2.448 12.09152,-16.44951 11.18549,-22.21388zM298.35355,202.25044c-1.61729,0 -2.93115,-1.316 -2.93115,-2.93222c0,-1.61729 1.31385,-2.9333 2.93115,-2.9333c1.61622,0 2.93115,1.316 2.93115,2.9333c0,1.61729 -1.31493,2.93222 -2.93115,2.93222zM243.56671,213.97288c-4.30095,0 -7.80133,-3.4993 -7.80133,-7.80133c0,-4.30203 3.4993,-7.80133 7.80133,-7.80133c4.30311,0 7.80241,3.4993 7.80241,7.80133c0.00107,4.30203 -3.4993,7.80133 -7.80241,7.80133zM243.56671,199.25365c-3.8135,0 -6.9179,3.10332 -6.9179,6.91897c0,3.8135 3.10332,6.9179 6.9179,6.9179c3.81566,0 6.92005,-3.10332 6.92005,-6.9179c0,-3.81566 -3.10439,-6.91897 -6.92005,-6.91897zM243.56886,212.09087c-3.27333,0 -5.91717,-2.64707 -5.91717,-5.9161c0,-3.27226 2.64492,-5.9204 5.91717,-5.9204c3.2658,0 5.91502,2.64815 5.91502,5.9204c0,3.26795 -2.64922,5.9161 -5.91502,5.9161zM243.56886,201.73178c-2.45769,0 -4.43761,1.98961 -4.43761,4.44191c0,2.4523 1.97992,4.43869 4.43761,4.43869c2.448,0 4.43546,-1.98638 4.43546,-4.43869c0,-2.4523 -1.98745,-4.44191 -4.43546,-4.44191zM243.56671,209.72895c-1.95948,0 -3.54987,-1.59147 -3.54987,-3.55418c0,-1.96163 1.59147,-3.55095 3.54987,-3.55095c1.96378,0 3.5488,1.5904 3.5488,3.55095c0,1.96271 -1.58502,3.55418 -3.5488,3.55418zM291.57554,209.02952c-1.61622,0 -2.93115,-1.316 -2.93115,-2.93222c0,-1.61729 1.31493,-2.93222 2.93115,-2.93222c1.61729,0 2.93222,1.31493 2.93222,2.93222c-0.00107,1.61622 -1.31493,2.93222 -2.93222,2.93222zM305.1746,209.02952c-1.61622,0 -2.93115,-1.316 -2.93115,-2.93222c0,-1.61729 1.31493,-2.93222 2.93115,-2.93222c1.61729,0 2.93222,1.31493 2.93222,2.93222c0,1.61622 -1.31493,2.93222 -2.93222,2.93222zM264.22355,208.43232c-1.12232,0 -2.03588,-0.91249 -2.03588,-2.03695c0,-1.12447 0.91356,-2.03695 2.03588,-2.03695c1.12339,0 2.03695,0.91249 2.03695,2.03695c0,1.12447 -0.91249,2.03695 -2.03695,2.03695zM278.56185,204.35949c1.12447,0 2.03695,0.91356 2.03695,2.03695c0,1.12339 -0.91249,2.03695 -2.03695,2.03695c-1.12447,0 -2.03695,-0.91356 -2.03695,-2.03695c0,-1.12339 0.91249,-2.03695 2.03695,-2.03695zM265.36953,205.95634h-0.63056v-0.48637c0,-0.07317 -0.06026,-0.13235 -0.13235,-0.13235h-1.52691c-0.07317,0 -0.13235,0.05918 -0.13235,0.13235v1.23422c0,0.07317 0.05918,0.13235 0.13235,0.13235h0.63056v0.48637c0,0.07317 0.05918,0.13235 0.13235,0.13235h1.52691c0.07317,0 0.13235,-0.05918 0.13235,-0.13235v-1.23422c0,-0.07425 -0.05811,-0.13235 -0.13235,-0.13235zM277.6655,205.72391c0,-0.0721 0.06026,-0.13235 0.13235,-0.13235h1.52691c0.07317,0 0.13235,0.06026 0.13235,0.13235c0,0.07317 -0.05918,0.13235 -0.13235,0.13235h-1.52691c-0.0721,0 -0.13235,-0.05918 -0.13235,-0.13235zM263.71027,206.08869v0.48314h-0.49821v-0.96952h1.2622v0.35402h-0.63164c-0.07425,0 -0.13235,0.05811 -0.13235,0.13235zM265.23718,207.19056h-1.2622v-0.96952h1.2622zM277.6655,206.39644c0,-0.07317 0.06026,-0.13235 0.13235,-0.13235h1.52691c0.07317,0 0.13235,0.05918 0.13235,0.13235c0,0.07317 -0.05918,0.13235 -0.13235,0.13235h-1.52691c-0.0721,0 -0.13235,-0.05918 -0.13235,-0.13235zM277.6655,207.07004c0,-0.07317 0.06026,-0.13235 0.13235,-0.13235h1.52691c0.07317,0 0.13235,0.05918 0.13235,0.13235c0,0.07317 -0.05918,0.13235 -0.13235,0.13235h-1.52691c-0.0721,0 -0.13235,-0.05918 -0.13235,-0.13235zM298.35355,215.80753c-1.61729,0 -2.93115,-1.316 -2.93115,-2.93222c0,-1.61622 1.31385,-2.93222 2.93115,-2.93222c1.61622,0 2.93115,1.316 2.93115,2.93222c0,1.61622 -1.31493,2.93222 -2.93115,2.93222zM284.27673,230.96901c-4.30095,0 -7.80025,-3.4993 -7.80025,-7.80133c0,-4.30203 3.4993,-7.80133 7.80025,-7.80133c4.30203,0 7.80241,3.4993 7.80241,7.80133c0,4.30203 -3.50037,7.80133 -7.80241,7.80133zM265.24579,225.61676h-4.4785v4.22563c0,0 -0.88343,0.4358 -2.38236,0.4358c-1.49893,0 -2.38344,-0.4358 -2.38344,-0.4358v-4.22563h-4.22456c0,0 -0.43688,-0.88343 -0.43688,-2.38344c0,-1.49786 0.43688,-2.38236 0.43688,-2.38236h4.22456v-4.47635c0,0 0.88451,-0.43795 2.38344,-0.43795c1.49893,0 2.38236,0.43795 2.38236,0.43795v4.47635h4.4785c0,0 0.43688,0.88451 0.43688,2.38236c0,1.50001 -0.43688,2.38344 -0.43688,2.38344zM284.27673,216.24871c-3.8135,0 -6.9179,3.10439 -6.9179,6.91897c0,3.81458 3.10439,6.91682 6.9179,6.91682c3.81458,0 6.92005,-3.10224 6.92005,-6.91682c0,-3.81458 -3.10546,-6.91897 -6.92005,-6.91897zM284.27888,229.08593c-3.27333,0 -5.91717,-2.64815 -5.91717,-5.9161c0,-3.27226 2.64492,-5.9204 5.91717,-5.9204c3.2658,0 5.91502,2.64815 5.91502,5.9204c0,3.26795 -2.64922,5.9161 -5.91502,5.9161zM284.27888,218.72684c-2.45769,0 -4.43761,1.98961 -4.43761,4.44191c0,2.4523 1.97992,4.43869 4.43761,4.43869c2.448,0 4.43546,-1.98638 4.43546,-4.43869c0,-2.4523 -1.98745,-4.44191 -4.43546,-4.44191zM284.27673,226.72401c-1.95948,0 -3.54987,-1.59147 -3.54987,-3.55418c0,-1.96163 1.59147,-3.55095 3.54987,-3.55095c1.96378,0 3.5488,1.5904 3.5488,3.55095c0,1.96271 -1.58502,3.55418 -3.5488,3.55418z" data-paper-data="{&quot;isPathIcon&quot;:true}" style="animation-play-state: paused;" fill="#3D3935"></path></g></g></g></g></svg>