<svg xmlns:mydata="http://www.w3.org/2000/svg" mydata:contrastcolor="FFA300" mydata:template="Contrast" mydata:presentation="2.5" mydata:layouttype="undefined" mydata:specialfontid="undefined" mydata:id1="111" mydata:id2="474" mydata:companyname="ARM CLUB" mydata:companytagline="CONTROL" version="1.1" xmlns="http://www.w3.org/2000/svg" xmlns:xlink="http://www.w3.org/1999/xlink" viewBox="65.35568403940508 114.99999999999997 419.2886319211898 240.00000000000003" class="watermark-logo" width="419.2886319211898"  height="240.00000000000003" ><g fill="#101820" fill-rule="none" stroke="none" stroke-width="1" stroke-linecap="butt" stroke-linejoin="miter" stroke-miterlimit="10" stroke-dasharray="" stroke-dashoffset="0" font-family="none" font-weight="none" font-size="none" text-anchor="none" style="mix-blend-mode: normal"><g data-paper-data="{&quot;isGlobalGroup&quot;:true,&quot;bounds&quot;:{&quot;x&quot;:65.35568403940508,&quot;y&quot;:114.99999999999997,&quot;width&quot;:419.2886319211898,&quot;height&quot;:240.00000000000003}}" fill="#101820"><g data-paper-data="{&quot;isSecondaryText&quot;:true}" fill-rule="nonzero" fill="#101820"><path d="M146.09468,355c4.24508,0 7.08877,-2.26063 7.40587,-6.64892h-3.58019c-0.17389,2.30155 -1.56505,3.60065 -3.82569,3.60065c-2.79255,0 -4.16325,-2.05605 -4.16325,-5.30891c0,-3.25286 1.3707,-5.30891 4.16325,-5.30891c2.26063,0 3.65179,1.2991 3.82569,3.60065h3.58019c-0.3171,-4.38829 -3.16079,-6.64892 -7.40587,-6.64892c-4.78722,0 -7.70252,2.93575 -7.70252,8.35718c0,5.42143 2.9153,8.35718 7.70252,8.35718z" data-paper-data="{&quot;glyphName&quot;:&quot;C&quot;,&quot;glyphIndex&quot;:0,&quot;firstGlyphOfWord&quot;:true,&quot;word&quot;:1}" style="" fill="#FFFFFF"></path><path d="M190.24085,355c4.74631,0 7.74344,-2.93575 7.74344,-8.35718c0,-5.42143 -2.99713,-8.35718 -7.74344,-8.35718c-4.78722,0 -7.70252,2.93575 -7.70252,8.35718c0,5.42143 2.9153,8.35718 7.70252,8.35718zM190.24085,351.95173c-2.79255,0 -4.16325,-2.05605 -4.16325,-5.30891c0,-3.25286 1.3707,-5.30891 4.16325,-5.30891c2.75163,0 4.20416,2.05605 4.20416,5.30891c0,3.25286 -1.45253,5.30891 -4.20416,5.30891z" data-paper-data="{&quot;glyphName&quot;:&quot;O&quot;,&quot;glyphIndex&quot;:1,&quot;word&quot;:1}" style="" fill="#FFFFFF"></path><path d="M228.75048,354.76473h3.55973v-10.98606h0.12275l6.88419,10.98606h3.80523v-16.24382h-3.55973v11.03721h-0.10229l-6.94556,-11.03721h-3.76431z" data-paper-data="{&quot;glyphName&quot;:&quot;N&quot;,&quot;glyphIndex&quot;:2,&quot;word&quot;:1}" style="" fill="#FFFFFF"></path><path d="M276.49032,354.76473h3.55973v-13.23647h4.87928v-3.00736h-13.28761v3.00736h4.8486z" data-paper-data="{&quot;glyphName&quot;:&quot;T&quot;,&quot;glyphIndex&quot;:3,&quot;word&quot;:1}" style="" fill="#FFFFFF"></path><path d="M326.75194,351.83921c-0.40916,-1.74918 -1.04337,-3.0585 -2.45499,-3.65179c1.66734,-0.70581 2.64934,-2.07651 2.64934,-4.41897c0,-3.26309 -2.05605,-5.24753 -6.36251,-5.24753h-7.2729v16.24382h3.5495v-5.9738h2.52659c2.68003,0 3.31423,0.88993 3.84614,3.33469l0.57283,2.63911h3.6211zM316.86039,346.12113v-4.58264h3.92798c1.82078,0 2.62888,0.8081 2.62888,2.29132c0,1.4423 -0.76718,2.29132 -2.62888,2.29132z" data-paper-data="{&quot;glyphName&quot;:&quot;R&quot;,&quot;glyphIndex&quot;:4,&quot;word&quot;:1}" style="" fill="#FFFFFF"></path><path d="M363.59023,355c4.74631,0 7.74344,-2.93575 7.74344,-8.35718c0,-5.42143 -2.99713,-8.35718 -7.74344,-8.35718c-4.78722,0 -7.70252,2.93575 -7.70252,8.35718c0,5.42143 2.9153,8.35718 7.70252,8.35718zM363.59023,351.95173c-2.79255,0 -4.16325,-2.05605 -4.16325,-5.30891c0,-3.25286 1.3707,-5.30891 4.16325,-5.30891c2.75163,0 4.20416,2.05605 4.20416,5.30891c0,3.25286 -1.45253,5.30891 -4.20416,5.30891z" data-paper-data="{&quot;glyphName&quot;:&quot;O&quot;,&quot;glyphIndex&quot;:5,&quot;word&quot;:1}" style="" fill="#FFFFFF"></path><path d="M400.39674,354.76473h11.2111v-3.02782h-7.65137v-13.21601h-3.55973z" data-paper-data="{&quot;glyphName&quot;:&quot;L&quot;,&quot;glyphIndex&quot;:6,&quot;lastGlyphOfWord&quot;:true,&quot;word&quot;:1}" style="" fill="#FFFFFF"></path></g><g data-paper-data="{&quot;isPrimaryText&quot;:true}" fill-rule="nonzero" fill="#101820"><path d="M65.48873,322.73991l8.34852,-31.66449c2.26175,-8.62569 9.62352,-12.94963 22.08532,-12.9718h17.92769c0.82044,0 1.50229,0.31044 2.04555,0.93131c0.54326,0.62087 0.8149,1.34153 0.8149,2.16197v41.54302c0,0.86479 -0.31044,1.59099 -0.93131,2.1786c-0.62087,0.58761 -1.3637,0.88142 -2.22849,0.88142h-6.25307c-0.90913,0 -1.65751,-0.29381 -2.24512,-0.88142c-0.58761,-0.58761 -0.88142,-1.33598 -0.88142,-2.24512v-8.38178h-23.64859l-2.22849,8.38178c-0.22174,0.90913 -0.72066,1.65751 -1.49675,2.24512c-0.77609,0.58761 -1.59653,0.88142 -2.46132,0.88142h-6.55242c-0.86479,0 -1.51892,-0.29935 -1.9624,-0.89805c-0.31044,-0.39913 -0.46565,-0.8537 -0.46565,-1.3637c0.02217,-0.24391 0.06652,-0.51 0.13304,-0.79826zM82.98403,304.87874h21.18727v-17.36225h-9.47939c-2.12871,0 -3.98578,0.60424 -5.57122,1.81273c-1.58544,1.20848 -2.65534,2.83273 -3.20969,4.87274z" data-paper-data="{&quot;glyphName&quot;:&quot;A&quot;,&quot;glyphIndex&quot;:0,&quot;firstGlyphOfWord&quot;:true,&quot;word&quot;:1}" style="" fill="#FFFFFF"></path><path d="M126.22336,322.67339v-41.40997c0,-0.86479 0.29935,-1.60762 0.89805,-2.22849c0.5987,-0.62087 1.33044,-0.93131 2.19523,-0.93131h27.44034c5.07785,0 9.24102,1.3637 12.48951,4.09111c3.24849,2.7274 4.87274,6.40829 4.87274,11.04266c0,6.45264 -4.1798,10.4994 -12.53941,12.14027c1.30827,0.51 2.53338,1.35261 3.67534,2.52784c1.14196,1.17522 2.44469,2.89371 3.90817,5.15546l6.05351,9.61244c0.37696,0.64305 0.56544,1.1974 0.56544,1.66305c0,0.19957 -0.03326,0.38805 -0.09978,0.56544c-0.22174,0.5987 -0.765,0.89805 -1.62979,0.89805h-7.98265c-0.86479,0 -1.7961,-0.30489 -2.79393,-0.91468c-0.99783,-0.60979 -1.76283,-1.34707 -2.29501,-2.21186l-5.65437,-8.84743c-2.3061,-3.63654 -5.1222,-5.45481 -8.4483,-5.45481h-8.11569v14.30224c0,0.86479 -0.30489,1.60207 -0.91468,2.21186c-0.60979,0.60979 -1.34707,0.91468 -2.21186,0.91468h-6.25307c-0.86479,0 -1.60762,-0.30489 -2.22849,-0.91468c-0.62087,-0.60979 -0.93131,-1.34707 -0.93131,-2.21186zM138.76276,298.95828h14.1692c2.26175,0 4.2685,-0.45457 6.02025,-1.3637c1.75175,-0.90913 2.62762,-2.36153 2.62762,-4.35719c0,-1.99566 -0.87033,-3.44806 -2.61099,-4.35719c-1.74066,-0.90913 -3.75295,-1.3637 -6.03688,-1.3637h-14.1692z" data-paper-data="{&quot;glyphName&quot;:&quot;R&quot;,&quot;glyphIndex&quot;:1,&quot;word&quot;:1}" style="" fill="#FFFFFF"></path><path d="M181.23709,322.60687v-41.27693c0,-0.90913 0.29935,-1.67414 0.89805,-2.29501c0.5987,-0.62087 1.33044,-0.93131 2.19523,-0.93131h13.53724c0.86479,0 1.68523,0.31044 2.46132,0.93131c0.77609,0.62087 1.29718,1.3637 1.56327,2.22849l9.812,28.40491l9.812,-28.40491c0.26609,-0.86479 0.78718,-1.60762 1.56327,-2.22849c0.77609,-0.62087 1.59653,-0.93131 2.46132,-0.93131h13.53724c0.86479,0 1.59099,0.31044 2.1786,0.93131c0.58761,0.62087 0.88142,1.38588 0.88142,2.29501v41.27693c0,0.90913 -0.30489,1.66859 -0.91468,2.27838c-0.60979,0.60979 -1.34707,0.91468 -2.21186,0.91468h-5.98698c-0.86479,0 -1.60207,-0.30489 -2.21186,-0.91468c-0.60979,-0.60979 -0.91468,-1.36925 -0.91468,-2.27838v-32.49602l-11.74114,32.69559c-0.31044,0.82044 -0.8537,1.52446 -1.62979,2.11207c-0.77609,0.58761 -1.59653,0.88142 -2.46132,0.88142h-4.75633c-0.86479,0 -1.67968,-0.29381 -2.44469,-0.88142c-0.765,-0.58761 -1.31381,-1.29164 -1.64642,-2.11207l-11.70788,-32.69559v32.49602c0,0.90913 -0.30489,1.66859 -0.91468,2.27838c-0.60979,0.60979 -1.34707,0.91468 -2.21186,0.91468h-5.98698c-0.86479,0 -1.60762,-0.30489 -2.22849,-0.91468c-0.62087,-0.60979 -0.93131,-1.36925 -0.93131,-2.27838z" data-paper-data="{&quot;glyphName&quot;:&quot;M&quot;,&quot;glyphIndex&quot;:2,&quot;lastGlyphOfWord&quot;:true,&quot;word&quot;:1}" style="" fill="#FFFFFF"></path><path d="M278.90808,320.17881c0,0 -1.02832,-0.9812 -3.08496,-2.9436c-2.05664,-1.9624 -3.08496,-7.05134 -3.08496,-15.26681c0,-8.21547 2.05664,-14.29115 6.16992,-18.22704c4.11328,-3.93589 10.2832,-5.90383 18.50976,-5.90383h7.41721c5.0335,0 9.48494,1.30827 13.3543,3.9248c3.86937,2.61653 5.80405,6.19764 5.80405,10.74331c0,1.30827 -0.38805,2.24512 -1.16414,2.81056c-0.77609,0.56544 -1.53001,0.84816 -2.26175,0.84816h-3.95806c-2.04001,0 -3.62545,-1.21957 -4.75633,-3.65871c-1.64088,-3.50349 -4.36828,-5.25524 -8.18221,-5.25524h-5.92046c-4.85611,0 -8.14895,1.04218 -9.87852,3.12654c-1.72957,2.08436 -2.59436,5.94264 -2.59436,11.57484c0,5.6322 0.86479,9.49602 2.59436,11.59147c1.72957,2.09544 5.02241,3.14317 9.87852,3.14317h6.61894c3.81393,0 6.53025,-1.75175 8.14895,-5.25524c1.13087,-2.46132 2.7274,-3.69197 4.78959,-3.69197h3.95806c0.39913,0 0.82598,0.08315 1.28055,0.24946c0.45457,0.16631 0.92022,0.55435 1.39696,1.16414c0.47674,0.60979 0.71511,1.36925 0.71511,2.27838c0,4.54567 -1.92914,8.12123 -5.78742,10.72668c-3.85828,2.60545 -8.30417,3.90817 -13.33767,3.90817h-8.11569c-8.22656,0 -14.39648,-1.9624 -18.50976,-5.8872z" data-paper-data="{&quot;glyphName&quot;:&quot;C&quot;,&quot;glyphIndex&quot;:3,&quot;firstGlyphOfWord&quot;:true,&quot;word&quot;:2}" style="" fill="#FFFFFF"></path><path d="M331.11126,322.73991v-41.40997c0,-0.90913 0.31044,-1.67414 0.93131,-2.29501c0.62087,-0.62087 1.3637,-0.93131 2.22849,-0.93131h6.25307c0.86479,0 1.60207,0.31044 2.21186,0.93131c0.60979,0.62087 0.91468,1.38588 0.91468,2.29501v35.05712h28.97035c0.86479,0 1.60207,0.31044 2.21186,0.93131c0.60979,0.62087 0.91468,1.3637 0.91468,2.22849v3.12654c0,0.86479 -0.30489,1.60207 -0.91468,2.21186c-0.60979,0.60979 -1.34707,0.91468 -2.21186,0.91468h-38.34996c-0.86479,0 -1.60762,-0.29381 -2.22849,-0.88142c-0.62087,-0.58761 -0.93131,-1.31381 -0.93131,-2.1786z" data-paper-data="{&quot;glyphName&quot;:&quot;L&quot;,&quot;glyphIndex&quot;:4,&quot;word&quot;:2}" style="" fill="#FFFFFF"></path><path d="M378.47496,306.94092v-25.67751c0,-0.86479 0.30489,-1.60762 0.91468,-2.22849c0.60979,-0.62087 1.36925,-0.93131 2.27838,-0.93131h6.21981c0.86479,0 1.60207,0.31044 2.21186,0.93131c0.60979,0.62087 0.91468,1.3637 0.91468,2.22849v25.74403c0,3.25958 0.71511,5.68763 2.14534,7.28416c1.43022,1.59653 3.64208,2.39479 6.63557,2.39479h5.32176c2.99349,0 5.20535,-0.79826 6.63557,-2.39479c1.43022,-1.59653 2.14534,-4.02458 2.14534,-7.28416v-25.74403c0,-0.86479 0.30489,-1.60762 0.91468,-2.22849c0.60979,-0.62087 1.34707,-0.93131 2.21186,-0.93131h6.18655c0.90913,0 1.67414,0.31044 2.29501,0.93131c0.62087,0.62087 0.93131,1.3637 0.93131,2.22849v25.67751c0,6.07568 -1.78501,10.78212 -5.35502,14.1193c-3.57002,3.33719 -8.78091,5.00578 -15.63268,5.00578h-5.98698c-6.85177,0 -12.06266,-1.66859 -15.63268,-5.00578c-3.57002,-3.33719 -5.35502,-8.04362 -5.35502,-14.1193z" data-paper-data="{&quot;glyphName&quot;:&quot;U&quot;,&quot;glyphIndex&quot;:5,&quot;word&quot;:2}" style="" fill="#FFFFFF"></path><path d="M435.25152,281.26341c0,-0.86479 0.31044,-1.60762 0.93131,-2.22849c0.62087,-0.62087 1.3637,-0.93131 2.22849,-0.93131h27.04121c3.03784,0 5.80405,0.42131 8.29863,1.26392c2.49458,0.84261 4.61774,2.32273 6.36949,4.44035c1.75175,2.11762 2.62762,4.7397 2.62762,7.86623c0,3.4148 -1.49675,6.34177 -4.49024,8.78091c4.27959,2.26175 6.40829,5.94264 6.38612,11.04266c0,4.54567 -1.70186,8.0658 -5.10557,10.56037c-3.40371,2.49458 -7.57797,3.74187 -12.52278,3.74187h-28.60448c-0.86479,0 -1.60762,-0.30489 -2.22849,-0.91468c-0.62087,-0.60979 -0.93131,-1.34707 -0.93131,-2.21186zM447.79093,316.81945h19.02531c1.72957,0 3.04338,-0.51 3.94143,-1.53001c0.89805,-1.02 1.34707,-2.41697 1.34707,-4.19089c0,-1.77392 -0.45457,-3.17088 -1.3637,-4.19089c-0.90913,-1.02 -2.2174,-1.53001 -3.9248,-1.53001h-19.02531zM447.79093,296.63001h17.79465c1.39696,0 2.51675,-0.41576 3.35936,-1.24729c0.84261,-0.83153 1.26392,-1.99566 1.26392,-3.49241c0,-1.49675 -0.42131,-2.66643 -1.26392,-3.50904c-0.84261,-0.84261 -1.9624,-1.26392 -3.35936,-1.26392h-17.79465z" data-paper-data="{&quot;glyphName&quot;:&quot;B&quot;,&quot;glyphIndex&quot;:6,&quot;lastGlyphOfWord&quot;:true,&quot;word&quot;:2}" style="" fill="#FFFFFF"></path></g><g data-paper-data="{&quot;isIcon&quot;:&quot;true&quot;,&quot;iconType&quot;:&quot;icon&quot;,&quot;rawIconId&quot;:&quot;1608371&quot;,&quot;selectedEffects&quot;:{&quot;container&quot;:&quot;&quot;,&quot;transformation&quot;:&quot;&quot;,&quot;pattern&quot;:&quot;&quot;},&quot;isDetailed&quot;:true,&quot;iconStyle&quot;:&quot;standalone&quot;,&quot;bounds&quot;:{&quot;x&quot;:178.90959094262286,&quot;y&quot;:114.99999999999997,&quot;width&quot;:192.1808181147543,&quot;height&quot;:135.3071786112124},&quot;fillRule&quot;:&quot;evenodd&quot;,&quot;suitableAsStandaloneIcon&quot;:true}" fill-rule="evenodd" fill="#101820"><path d="M369.79605,206.21445c-2.23355,-14.21059 -12.91446,-69.73974 -25.49152,-77.11516c-0.41639,-0.24343 -1.21286,-0.56372 -2.2848,-0.931c-1.77445,-2.80369 -3.66208,-5.66502 -4.4244,-6.1113c-3.24569,-1.90257 -27.99839,-8.56479 -33.05058,-6.7455l-6.07928,2.90404l-0.04485,0.38863h-46.83837l-0.04485,-0.38863l-6.07928,-2.90404c-5.05218,-1.8193 -29.80488,4.84505 -33.05058,6.7455c-0.76231,0.44628 -2.65208,3.30548 -4.4244,6.1113c-0.77939,0.26713 -1.41316,0.50928 -1.86115,0.71512c0.02498,-0.01195 0.05018,-0.02392 0.07602,-0.03609c-0.06427,0.02925 -0.12406,0.05744 -0.18022,0.08498c-0.12321,0.05893 -0.23018,0.11466 -0.31944,0.16699c-12.58134,7.37542 -23.26224,62.90456 -25.49579,77.11516c-1.7958,11.43894 -5.8209,39.2238 22.19671,44.08167c1.45522,0.26008 5.49057,-4.09833 10.87116,-9.90962c10.16586,-10.97942 25.13299,-27.14469 36.57151,-27.14469h50.31468c11.44001,0 26.41099,16.16911 36.57685,27.14853c5.37846,5.80894 9.41187,10.16522 10.86582,9.90578c28.01974,-4.85787 23.99466,-32.64273 22.19671,-44.08167zM330.10889,144.09783c-3.20939,0 -5.81663,-2.61151 -5.81663,-5.81876c0,-3.20939 2.60723,-5.8209 5.81663,-5.8209c3.20726,0 5.81663,2.61151 5.81663,5.8209c0,3.20939 -2.60936,5.81876 -5.81663,5.81876zM221.38878,167.36007c-8.53489,0 -15.48112,-6.94408 -15.48112,-15.48112c0,-8.53704 6.94408,-15.48112 15.48112,-15.48112c8.53917,0 15.48325,6.94408 15.48325,15.48112c0.00213,8.53704 -6.94408,15.48112 -15.48325,15.48112zM221.38878,138.15094c-7.56759,0 -13.72801,6.15828 -13.72801,13.73015c0,7.56759 6.15828,13.72801 13.72801,13.72801c7.57187,0 13.73228,-6.15828 13.73228,-13.72801c0,-7.57187 -6.16041,-13.73015 -13.73228,-13.73015zM221.39304,163.62538c-6.49566,0 -11.74215,-5.2529 -11.74215,-11.74002c0,-6.49353 5.24863,-11.74856 11.74215,-11.74856c6.48071,0 11.73789,5.25504 11.73789,11.74856c0,6.48499 -5.25717,11.74002 -11.73789,11.74002zM221.39304,143.06859c-4.87709,0 -8.80608,3.94822 -8.80608,8.81462c0,4.8664 3.929,8.80822 8.80608,8.80822c4.85787,0 8.80181,-3.94181 8.80181,-8.80822c0,-4.8664 -3.94394,-8.81462 -8.80181,-8.81462zM221.38878,158.93834c-3.88843,0 -7.04444,-3.15815 -7.04444,-7.05298c0,-3.8927 3.15815,-7.04658 7.04444,-7.04658c3.89697,0 7.0423,3.15601 7.0423,7.04658c0,3.89483 -3.14534,7.05298 -7.0423,7.05298zM316.65847,157.55038c-3.20726,0 -5.81663,-2.61151 -5.81663,-5.81876c0,-3.20939 2.60936,-5.81876 5.81663,-5.81876c3.20939,0 5.81876,2.60936 5.81876,5.81876c-0.00213,3.20726 -2.60936,5.81876 -5.81876,5.81876zM343.64472,157.55038c-3.20726,0 -5.81663,-2.61151 -5.81663,-5.81876c0,-3.20939 2.60936,-5.81876 5.81663,-5.81876c3.20939,0 5.81876,2.60936 5.81876,5.81876c0,3.20726 -2.60936,5.81876 -5.81876,5.81876zM262.38063,156.36527c-2.22715,0 -4.04003,-1.81076 -4.04003,-4.04217c0,-2.23141 1.81289,-4.04217 4.04003,-4.04217c2.22928,0 4.04217,1.81076 4.04217,4.04217c0,2.23141 -1.81076,4.04217 -4.04217,4.04217zM290.83384,148.28306c2.23141,0 4.04217,1.81289 4.04217,4.04217c0,2.22928 -1.81076,4.04217 -4.04217,4.04217c-2.23141,0 -4.04217,-1.81289 -4.04217,-4.04217c0,-2.22928 1.81076,-4.04217 4.04217,-4.04217zM264.65474,151.45189h-1.2513v-0.96517c0,-0.1452 -0.11957,-0.26264 -0.26264,-0.26264h-3.03003c-0.1452,0 -0.26264,0.11744 -0.26264,0.26264v2.44922c0,0.1452 0.11744,0.26264 0.26264,0.26264h1.2513v0.96517c0,0.1452 0.11744,0.26264 0.26264,0.26264h3.03003c0.1452,0 0.26264,-0.11744 0.26264,-0.26264v-2.44922c0,-0.14734 -0.11531,-0.26264 -0.26264,-0.26264zM289.05511,150.99065c0,-0.14307 0.11957,-0.26264 0.26264,-0.26264h3.03003c0.1452,0 0.26264,0.11957 0.26264,0.26264c0,0.1452 -0.11744,0.26264 -0.26264,0.26264h-3.03003c-0.14307,0 -0.26264,-0.11744 -0.26264,-0.26264zM261.36207,151.71453v0.95876h-0.98866v-1.92393h2.50474v0.70253h-1.25343c-0.14734,0 -0.26264,0.11531 -0.26264,0.26264zM264.3921,153.90111h-2.50474v-1.92393h2.50474zM289.05511,152.32523c0,-0.1452 0.11957,-0.26264 0.26264,-0.26264h3.03003c0.1452,0 0.26264,0.11744 0.26264,0.26264c0,0.1452 -0.11744,0.26264 -0.26264,0.26264h-3.03003c-0.14307,0 -0.26264,-0.11744 -0.26264,-0.26264zM289.05511,153.66195c0,-0.1452 0.11957,-0.26264 0.26264,-0.26264h3.03003c0.1452,0 0.26264,0.11744 0.26264,0.26264c0,0.1452 -0.11744,0.26264 -0.26264,0.26264h-3.03003c-0.14307,0 -0.26264,-0.11744 -0.26264,-0.26264zM330.10889,171.0008c-3.20939,0 -5.81663,-2.61151 -5.81663,-5.81876c0,-3.20726 2.60723,-5.81876 5.81663,-5.81876c3.20726,0 5.81663,2.61151 5.81663,5.81876c0,3.20726 -2.60936,5.81876 -5.81663,5.81876zM302.17456,201.08753c-8.53489,0 -15.47897,-6.94408 -15.47897,-15.48112c0,-8.53704 6.94408,-15.48112 15.47897,-15.48112c8.53704,0 15.48325,6.94408 15.48325,15.48112c0,8.53704 -6.94621,15.48112 -15.48325,15.48112zM264.40918,190.46642h-8.88723v8.38543c0,0 -1.7531,0.8648 -4.72761,0.8648c-2.97451,0 -4.72974,-0.8648 -4.72974,-0.8648v-8.38543h-8.38329c0,0 -0.86695,-1.7531 -0.86695,-4.72974c0,-2.97237 0.86695,-4.72761 0.86695,-4.72761h8.38329v-8.88295c0,0 1.75524,-0.86908 4.72974,-0.86908c2.97451,0 4.72761,0.86908 4.72761,0.86908v8.88295h8.88723c0,0 0.86695,1.75524 0.86695,4.72761c0,2.97664 -0.86695,4.72974 -0.86695,4.72974zM302.17456,171.87628c-7.56759,0 -13.72801,6.16041 -13.72801,13.73015c0,7.56973 6.16041,13.72587 13.72801,13.72587c7.56973,0 13.73228,-6.15615 13.73228,-13.72587c0,-7.56973 -6.16255,-13.73015 -13.73228,-13.73015zM302.17883,197.35071c-6.49566,0 -11.74215,-5.25504 -11.74215,-11.74002c0,-6.49353 5.24863,-11.74856 11.74215,-11.74856c6.48071,0 11.73789,5.25504 11.73789,11.74856c0,6.48499 -5.25717,11.74002 -11.73789,11.74002zM302.17883,176.79394c-4.87709,0 -8.80608,3.94822 -8.80608,8.81462c0,4.8664 3.929,8.80822 8.80608,8.80822c4.85787,0 8.80181,-3.94181 8.80181,-8.80822c0,-4.8664 -3.94394,-8.81462 -8.80181,-8.81462zM302.17456,192.66367c-3.88843,0 -7.04444,-3.15815 -7.04444,-7.05298c0,-3.8927 3.15815,-7.04658 7.04444,-7.04658c3.89697,0 7.0423,3.15601 7.0423,7.04658c0,3.89483 -3.14534,7.05298 -7.0423,7.05298z" data-paper-data="{&quot;isPathIcon&quot;:true}" style="" fill="#FFFFFF"></path></g></g></g><g class="watermark-group" style="opacity:0.040000010281801224"><path class="watermark-path" d="M129.52,370.3a11.88,11.88,0,0,1,2.58,5.58,12,12,0,0,1,.11,3,11.81,11.81,0,0,1-.64,2.93,12.34,12.34,0,0,1-1.41,2.72,11.65,11.65,0,0,1-2.13,2.32,12,12,0,0,1-2.64,1.69,13,13,0,0,1-2.91.9,12.47,12.47,0,0,1-3,.12,12.17,12.17,0,0,1-2.93-.64,11.8,11.8,0,0,1-2.72-1.38,12.19,12.19,0,0,1-4-4.79,11.85,11.85,0,0,1-.89-2.92,12.14,12.14,0,0,1-.13-3,11.54,11.54,0,0,1,.64-2.92,11.67,11.67,0,0,1,3.5-5,11.44,11.44,0,0,1,2.67-1.69,11.64,11.64,0,0,1,2.92-.91,10.71,10.71,0,0,1,3-.12,11.68,11.68,0,0,1,5.66,2,11.7,11.7,0,0,1,2.34,2.12m-1.4,8.76a13,13,0,0,1-1.22,2.32,9.68,9.68,0,0,1-1.81,2,7.44,7.44,0,0,1-2.38,1.37,6.17,6.17,0,0,1-5.11-.46,8.73,8.73,0,0,1-3.85-4.58,6.69,6.69,0,0,1-.34-2.66,6.09,6.09,0,0,1,.77-2.47,7.15,7.15,0,0,1,1.75-2.11,9.58,9.58,0,0,1,1.09-.81,8.23,8.23,0,0,1,1.12-.63,8.14,8.14,0,0,1,1.19-.46,12.71,12.71,0,0,1,1.32-.37l2,2.38a12.83,12.83,0,0,0-1.56.17,7.86,7.86,0,0,0-1.23.32,4.5,4.5,0,0,0-1,.49,6.41,6.41,0,0,0-.93.67,4.49,4.49,0,0,0-1.15,1.39,3.87,3.87,0,0,0-.45,1.58,4.12,4.12,0,0,0,.26,1.63,6.11,6.11,0,0,0,2.36,2.82,4.43,4.43,0,0,0,1.57.53,3.91,3.91,0,0,0,1.62-.17,4.71,4.71,0,0,0,1.57-.89,10.5,10.5,0,0,0,.83-.79,5.71,5.71,0,0,0,.65-.93,10.13,10.13,0,0,0,.54-1.14,12.24,12.24,0,0,0,.44-1.49l2,2.33m-14.46,4.55a8.86,8.86,0,0,0,2.78,2.22,9,9,0,0,0,3.29.94,9.15,9.15,0,0,0,3.39-.37,8.68,8.68,0,0,0,3.11-1.69,8.8,8.8,0,0,0,2.22-2.78,9.15,9.15,0,0,0,1-3.29,8.95,8.95,0,0,0-4.83-8.76,9,9,0,0,0-6.73-.57,9,9,0,0,0-5.33,4.47,8.94,8.94,0,0,0-.57,6.71,8.76,8.76,0,0,0,1.7,3.12" style="" fill="#FFFFFF"></path><path class="watermark-path" d="M147,349c-.48.12-1.09.31-1.82.57a24.37,24.37,0,0,0-2.4,1A28.35,28.35,0,0,0,140,352a20.72,20.72,0,0,0-2.71,1.94c-.7.59-1.28,1.11-1.74,1.57a15.07,15.07,0,0,0-1.1,1.22,4.09,4.09,0,0,0-.59.92,2.32,2.32,0,0,0-.22.64,1.16,1.16,0,0,0,0,.47,1.83,1.83,0,0,0,.18.29,1.15,1.15,0,0,0,1,.37,5.54,5.54,0,0,0,1.51-.38q.87-.35,1.95-.9l2.26-1.18q1.2-.65,2.49-1.29c.87-.44,1.73-.83,2.59-1.17a18.94,18.94,0,0,1,2.6-.81,9.27,9.27,0,0,1,2.46-.29,6.25,6.25,0,0,1,2.24.49,5.12,5.12,0,0,1,1.89,1.47,6.35,6.35,0,0,1,1.41,2.61,6,6,0,0,1,.09,2.6,8.3,8.3,0,0,1-.9,2.52,17.79,17.79,0,0,1-1.62,2.37,23.92,23.92,0,0,1-2,2.15c-.72.67-1.41,1.29-2.09,1.87a33.79,33.79,0,0,1-5.33,3.7,32.29,32.29,0,0,1-4.91,2.28l-3.61-4.3a21.38,21.38,0,0,0,5.39-1.87,27.2,27.2,0,0,0,5.4-3.56,21.59,21.59,0,0,0,2.38-2.27,8.67,8.67,0,0,0,1.18-1.7,2.32,2.32,0,0,0,.27-1.19,1.34,1.34,0,0,0-.28-.74,1.21,1.21,0,0,0-1-.42,4.32,4.32,0,0,0-1.55.34,15.77,15.77,0,0,0-2,.88c-.72.37-1.48.77-2.27,1.21l-2.45,1.3c-.85.45-1.7.85-2.56,1.21a22.37,22.37,0,0,1-2.54.86,10,10,0,0,1-2.43.32,5.76,5.76,0,0,1-2.2-.45,5,5,0,0,1-1.89-1.45,6.12,6.12,0,0,1-1.31-2.41,6,6,0,0,1-.1-2.41,8.28,8.28,0,0,1,.81-2.38,14.06,14.06,0,0,1,1.49-2.24,22.37,22.37,0,0,1,1.85-2.05q1-1,2-1.77c.7-.59,1.44-1.15,2.23-1.7s1.62-1.06,2.44-1.53,1.63-.91,2.43-1.3,1.58-.75,2.3-1L147,349" style="" fill="#FFFFFF"></path><path class="watermark-path" d="M186.76,337.57l-10.6-12.63,3.92,18.24-4.66,3.91-17.27-7,10.6,12.63-4.86,4.07-15.09-18,6.59-5.54,18.69,7.52-4.15-19.71,6.57-5.52,15.09,18-4.83,4.05" style="" fill="#FFFFFF"></path><path class="watermark-path" d="M208.84,313.24l-10,8.42,1.16,4.82L194.56,331l-5.68-25.89,5.42-4.55,24.51,10.09-5.42,4.55-4.55-2m-11.23,3.45,6.57-5.52-8.83-3.87,2.26,9.39" style="" fill="#FFFFFF"></path><path class="watermark-path" d="M227.49,281.38c-.48.12-1.09.31-1.82.57a24.37,24.37,0,0,0-2.4,1,26.11,26.11,0,0,0-2.7,1.47,20.72,20.72,0,0,0-2.71,1.94c-.7.59-1.28,1.11-1.74,1.57a13.39,13.39,0,0,0-1.1,1.22,4.29,4.29,0,0,0-.59.91,2.48,2.48,0,0,0-.22.65,1.16,1.16,0,0,0,0,.47,1.83,1.83,0,0,0,.18.29,1.15,1.15,0,0,0,1,.37,5.54,5.54,0,0,0,1.51-.38q.87-.34,2-.9l2.26-1.18q1.2-.64,2.49-1.29c.87-.44,1.73-.83,2.59-1.17a18.94,18.94,0,0,1,2.6-.81,9.27,9.27,0,0,1,2.46-.29,6.08,6.08,0,0,1,2.24.49,5.09,5.09,0,0,1,1.89,1.46,6.47,6.47,0,0,1,1.41,2.61,6.07,6.07,0,0,1,.09,2.61,8.3,8.3,0,0,1-.9,2.52,16.32,16.32,0,0,1-1.63,2.36,21.41,21.41,0,0,1-2,2.16c-.72.67-1.41,1.29-2.1,1.86a33.36,33.36,0,0,1-5.32,3.71,31.92,31.92,0,0,1-4.92,2.28l-3.6-4.3a21.38,21.38,0,0,0,5.39-1.87,27.2,27.2,0,0,0,5.4-3.56,21.59,21.59,0,0,0,2.38-2.27,8.67,8.67,0,0,0,1.18-1.7A2.32,2.32,0,0,0,231,293a1.34,1.34,0,0,0-.28-.74,1.21,1.21,0,0,0-1-.42,4.32,4.32,0,0,0-1.55.34,16.54,16.54,0,0,0-2,.88c-.71.37-1.47.77-2.26,1.21l-2.46,1.3c-.84.44-1.7.85-2.55,1.21a24.53,24.53,0,0,1-2.54.86A10,10,0,0,1,214,298a5.76,5.76,0,0,1-2.2-.45,5,5,0,0,1-1.89-1.45,6.12,6.12,0,0,1-1.31-2.41,5.78,5.78,0,0,1-.1-2.41,8,8,0,0,1,.81-2.38,14.61,14.61,0,0,1,1.49-2.25,22.26,22.26,0,0,1,1.85-2q1-1,2-1.77c.7-.59,1.44-1.15,2.23-1.7s1.62-1.06,2.44-1.53,1.63-.91,2.43-1.31,1.58-.74,2.3-1l3.5,4.16" style="" fill="#FFFFFF"></path><path class="watermark-path" d="M261.64,274.74l-6.29-7.5L243,277.61l6.3,7.5-4.86,4.07-15.09-18,4.85-4.08,5.49,6.55L252,263.3l-5.49-6.55,4.86-4.07,15.09,18-4.86,4.08" style="" fill="#FFFFFF"></path><path class="watermark-path" d="M272.18,265.9l-15.09-18,4.86-4.08,15.09,18-4.86,4.08" style="" fill="#FFFFFF"></path><path class="watermark-path" d="M299.65,242.85l-22.51-2.18L287.51,253l-4.85,4.08-15.1-18,5.28-4.43,22.56,2.22L285,224.5l4.83-4.06,15.09,18-5.26,4.42" style="" fill="#FFFFFF"></path><path class="watermark-path" d="M306.68,205.52a31.88,31.88,0,0,1,5.29-3.66,34.48,34.48,0,0,1,5.14-2.35l3.69,4.39a20.77,20.77,0,0,0-2.37.61,20.47,20.47,0,0,0-2.61,1,25.12,25.12,0,0,0-2.76,1.49,23.9,23.9,0,0,0-2.8,2,20.42,20.42,0,0,0-2.8,2.77,12.77,12.77,0,0,0-1.64,2.52,7,7,0,0,0-.68,2.24,6,6,0,0,0,.66,3.64,8.16,8.16,0,0,0,.94,1.38,9.12,9.12,0,0,0,1.08,1.07,6.39,6.39,0,0,0,1.47.91,6.73,6.73,0,0,0,1.88.48,6.54,6.54,0,0,0,2.28-.18,11.67,11.67,0,0,0,2.74-1.07,19.38,19.38,0,0,0,3.18-2.22c.57-.48,1.06-.92,1.46-1.31a14.57,14.57,0,0,0,1-1.13,11.46,11.46,0,0,0,.81-1.05l.74-1.09-1.82-2.17-5.45,4.57-3.31-3.94,10.31-8.65,7.71,9.19a29,29,0,0,1-1.67,2.43q-1,1.26-2.1,2.52c-.74.84-1.5,1.65-2.3,2.44s-1.58,1.5-2.33,2.14a31,31,0,0,1-3.59,2.61,22.55,22.55,0,0,1-3.64,1.83,15.64,15.64,0,0,1-3.63.89,10.72,10.72,0,0,1-3.49-.15,10.45,10.45,0,0,1-3.28-1.33,12.54,12.54,0,0,1-3-2.67,12,12,0,0,1-2.08-3.44,10.45,10.45,0,0,1-.71-3.5,11.14,11.14,0,0,1,.51-3.51,15.72,15.72,0,0,1,1.56-3.43,21.62,21.62,0,0,1,2.42-3.28,30.3,30.3,0,0,1,3.15-3" style="" fill="#FFFFFF"></path><path class="watermark-path" d="M336.91,211.59l-15.1-18,4.86-4.08,11.79,14,13.13-11,3.31,3.94-18,15.1" style="" fill="#FFFFFF"></path><path class="watermark-path" d="M374.54,164.71a12.28,12.28,0,0,1,2.59,4.81,10.44,10.44,0,0,1,0,5,14.62,14.62,0,0,1-2.33,5,25.55,25.55,0,0,1-4.56,4.85,26.07,26.07,0,0,1-5.6,3.67,14.79,14.79,0,0,1-5.38,1.43,10.43,10.43,0,0,1-4.94-.89,13.24,13.24,0,0,1-6.87-8.18,10.48,10.48,0,0,1,0-5,14.51,14.51,0,0,1,2.36-5,25.23,25.23,0,0,1,4.57-4.89,25,25,0,0,1,5.59-3.64,14.45,14.45,0,0,1,5.35-1.43,10.31,10.31,0,0,1,4.93.92,12.22,12.22,0,0,1,4.28,3.38m-4.91,4.11a8.36,8.36,0,0,0-2-1.72,5.5,5.5,0,0,0-2.65-.85,7.72,7.72,0,0,0-3.32.57,14.49,14.49,0,0,0-4,2.52,16.72,16.72,0,0,0-2.38,2.4,10.15,10.15,0,0,0-1.39,2.24,6.71,6.71,0,0,0-.56,2.1,5.69,5.69,0,0,0,.1,1.9,6.21,6.21,0,0,0,.61,1.69,9.85,9.85,0,0,0,1,1.44,10.48,10.48,0,0,0,1.26,1.23,6.67,6.67,0,0,0,1.57.92,6.1,6.1,0,0,0,1.85.41,6.8,6.8,0,0,0,2.15-.2,11.06,11.06,0,0,0,2.45-1,17.67,17.67,0,0,0,2.77-1.94,14.39,14.39,0,0,0,3.18-3.52,7.74,7.74,0,0,0,1.14-3.17,5.54,5.54,0,0,0-.37-2.74,8.52,8.52,0,0,0-1.36-2.3" style="" fill="#FFFFFF"></path><path class="watermark-path" d="M382.66,141.76A32.3,32.3,0,0,1,388,138.1a34.12,34.12,0,0,1,5.15-2.35l3.69,4.4a19.62,19.62,0,0,0-2.37.6,22.08,22.08,0,0,0-2.61,1,26,26,0,0,0-2.77,1.49,23.9,23.9,0,0,0-2.8,2,21,21,0,0,0-2.8,2.78,13.19,13.19,0,0,0-1.64,2.51,7.29,7.29,0,0,0-.68,2.24,6.36,6.36,0,0,0,.06,2,5.8,5.8,0,0,0,.61,1.68,8.12,8.12,0,0,0,.93,1.38,9.16,9.16,0,0,0,1.08,1.08,6.56,6.56,0,0,0,1.48.9,6,6,0,0,0,1.87.48,6.76,6.76,0,0,0,2.28-.17,12,12,0,0,0,2.74-1.08,18.57,18.57,0,0,0,3.18-2.22c.58-.48,1.06-.92,1.46-1.31s.75-.77,1.05-1.12.57-.72.81-1.06l.73-1.09-1.82-2.17-5.45,4.57-3.3-3.94,10.3-8.65,7.71,9.19a29,29,0,0,1-1.67,2.43q-1,1.26-2.1,2.52c-.73.84-1.5,1.66-2.3,2.44s-1.57,1.5-2.33,2.14a31,31,0,0,1-3.59,2.61,22.15,22.15,0,0,1-3.64,1.83,15.56,15.56,0,0,1-3.62.89,11,11,0,0,1-3.49-.14,10.84,10.84,0,0,1-3.28-1.33,12.82,12.82,0,0,1-3-2.68,12.12,12.12,0,0,1-2.08-3.43A10.71,10.71,0,0,1,375,155a11.18,11.18,0,0,1,.51-3.51,15.51,15.51,0,0,1,1.57-3.43,21.44,21.44,0,0,1,2.42-3.28,30.19,30.19,0,0,1,3.14-3" style="" fill="#FFFFFF"></path><path class="watermark-path" d="M428.63,119.31a12.26,12.26,0,0,1,2.59,4.82,10.44,10.44,0,0,1,0,5,14.53,14.53,0,0,1-2.34,5,25.29,25.29,0,0,1-4.56,4.86,26,26,0,0,1-5.59,3.67,14.84,14.84,0,0,1-5.38,1.43,10.61,10.61,0,0,1-4.95-.89,12.15,12.15,0,0,1-4.3-3.37,12,12,0,0,1-2.56-4.81,10.48,10.48,0,0,1,0-5,14.39,14.39,0,0,1,2.35-5,27.89,27.89,0,0,1,10.16-8.53,14.49,14.49,0,0,1,5.36-1.43,10.27,10.27,0,0,1,4.92.92,12.21,12.21,0,0,1,4.28,3.37m-4.91,4.12a8.17,8.17,0,0,0-2-1.72,5.58,5.58,0,0,0-2.65-.86,7.86,7.86,0,0,0-3.31.58,14.49,14.49,0,0,0-4,2.52,16.21,16.21,0,0,0-2.38,2.4,9.85,9.85,0,0,0-1.4,2.24,7,7,0,0,0-.56,2.1,6,6,0,0,0,.1,1.9,6.23,6.23,0,0,0,.62,1.69,8.49,8.49,0,0,0,1,1.44,9.18,9.18,0,0,0,1.26,1.23,6.67,6.67,0,0,0,1.57.92,6,6,0,0,0,1.84.41,6.86,6.86,0,0,0,2.16-.2,11.26,11.26,0,0,0,2.45-1,17.62,17.62,0,0,0,2.76-1.94,14.67,14.67,0,0,0,3.19-3.52,7.71,7.71,0,0,0,1.13-3.17,5.53,5.53,0,0,0-.36-2.74,8.55,8.55,0,0,0-1.37-2.3" style="" fill="#FFFFFF"></path></g></svg>